<svg width="226" height="69" viewBox="0 0 226 69" fill="none" xmlns="http://www.w3.org/2000/svg">
<g clip-path="url(#clip0_223_545)">
<path d="M13.3383 51.2093L10.5947 54.278L10.1807 53.6265L12.2547 51.4626L12.235 51.4312L9.36916 52.35L8.99243 51.7572L11.0411 49.5496L11.0224 49.5201L8.18095 50.4807L7.76686 49.8293L11.7101 48.6476L12.0899 49.245L10.1695 51.4058L10.186 51.4317L12.9585 50.6114L13.3383 51.2093ZM10.9053 47.2953L8.214 48.5546L7.91725 47.9204L10.6085 46.6612L10.9053 47.2953ZM7.68283 48.4148C7.72986 48.5151 7.73699 48.6172 7.7043 48.7207C7.67044 48.8247 7.60621 48.8991 7.5116 48.9432C7.41582 48.9881 7.31768 48.9899 7.21722 48.9486C7.11558 48.9078 7.04127 48.8374 6.99424 48.7366C6.94671 48.6349 6.94013 48.5328 6.97454 48.4297C7.00722 48.3262 7.07146 48.2523 7.16724 48.2073C7.26189 48.1628 7.35999 48.1615 7.46162 48.2019C7.56154 48.2423 7.6353 48.3131 7.68283 48.4148ZM7.45881 44.5659L7.74797 45.1393C7.69395 45.1788 7.64829 45.2296 7.61097 45.2918C7.5732 45.3528 7.55114 45.4242 7.54479 45.5068C7.53843 45.5889 7.55423 45.6806 7.59222 45.7823C7.64338 45.9185 7.71593 46.0225 7.80994 46.0933C7.9035 46.1627 7.99715 46.1791 8.09089 46.1428C8.17228 46.1137 8.22698 46.0592 8.25508 45.9802C8.28277 45.8994 8.2864 45.7823 8.26606 45.6289L8.18971 45.1163C8.14786 44.8318 8.16452 44.6024 8.23978 44.4282C8.31455 44.2529 8.45132 44.1273 8.65015 44.0514C8.82569 43.987 8.99951 43.9804 9.17155 44.0317C9.34197 44.0822 9.49808 44.1827 9.63989 44.3334C9.78175 44.4841 9.8961 44.6754 9.98294 44.9072C10.1105 45.2478 10.142 45.5485 10.0773 45.8096C10.0114 46.0715 9.85792 46.2699 9.61683 46.4056L9.31568 45.7891C9.43039 45.7133 9.50212 45.6162 9.53085 45.4982C9.55954 45.3798 9.54565 45.2453 9.48909 45.0943C9.43071 44.9385 9.35191 44.8255 9.25258 44.7553C9.15285 44.6839 9.05589 44.6658 8.96169 44.7011C8.88198 44.7309 8.82769 44.7864 8.79886 44.8674C8.76954 44.9473 8.76495 45.0564 8.78515 45.1948L8.86332 45.707C8.90776 45.9943 8.88815 46.2272 8.80445 46.4042C8.71956 46.5822 8.57547 46.7084 8.37211 46.7833C8.2011 46.8486 8.03514 46.8577 7.87422 46.8105C7.7117 46.7629 7.56435 46.6671 7.43216 46.5241C7.29834 46.3797 7.1898 46.1968 7.10655 45.9743C6.98439 45.6484 6.9577 45.3658 7.02643 45.1266C7.09474 44.8861 7.23887 44.6993 7.45881 44.5659ZM9.11177 42.1038C9.1671 42.3306 9.15834 42.5478 9.08553 42.7554C9.01272 42.9629 8.87812 43.1458 8.68174 43.3039C8.48537 43.462 8.22866 43.5797 7.91171 43.657C7.59095 43.7352 7.30751 43.7487 7.06133 43.6972C6.81357 43.6448 6.61134 43.5422 6.45454 43.3892C6.29652 43.2367 6.19044 43.0495 6.13637 42.8277C6.09511 42.6586 6.08998 42.5125 6.12103 42.3894C6.15081 42.2667 6.19802 42.1636 6.26261 42.0801C6.32594 41.9969 6.3884 41.9293 6.45 41.8771L6.44315 41.8489L5.00359 42.2001L4.83713 41.5179L8.68597 40.5789L8.84921 41.248L8.3944 41.3589L8.40452 41.4003C8.48323 41.4182 8.57016 41.4508 8.66527 41.4979C8.75914 41.5454 8.84694 41.6169 8.92869 41.7124C9.0104 41.808 9.07141 41.9384 9.11177 42.1038ZM8.50729 42.0502C8.47216 41.9061 8.40334 41.7928 8.30093 41.7103C8.19725 41.628 8.06882 41.5777 7.91566 41.5593C7.7625 41.541 7.59259 41.5545 7.40588 41.6001C7.21922 41.6456 7.06338 41.7115 6.9384 41.7978C6.81312 41.8827 6.72464 41.9853 6.67298 42.1054C6.621 42.2243 6.61288 42.3571 6.64865 42.5036C6.68565 42.6552 6.75596 42.7722 6.85969 42.8544C6.96337 42.9366 7.09102 42.9864 7.24259 43.0038C7.39421 43.0213 7.55959 43.0082 7.73876 42.9644C7.91916 42.9205 8.07391 42.8555 8.20292 42.7696C8.33043 42.6827 8.42249 42.5786 8.47919 42.4573C8.5343 42.335 8.5437 42.1993 8.50729 42.0502ZM8.46371 38.5542C8.49681 38.8424 8.46208 39.0995 8.35949 39.3255C8.25694 39.5515 8.09833 39.7358 7.88366 39.8786C7.66885 40.0201 7.40901 40.1084 7.10405 40.1434C6.79913 40.1784 6.5254 40.1515 6.28281 40.0625C6.04009 39.9723 5.84317 39.8287 5.69205 39.6319C5.54093 39.4351 5.44882 39.1925 5.41573 38.9042C5.38259 38.6159 5.41732 38.3588 5.51991 38.1329C5.62246 37.9069 5.78179 37.7231 5.99787 37.5814C6.21381 37.4385 6.47424 37.3495 6.77916 37.3145C7.08412 37.2795 7.35731 37.3072 7.59872 37.3976C7.84004 37.4867 8.03623 37.6297 8.18735 37.8265C8.33847 38.0233 8.43057 38.2659 8.46371 38.5542ZM7.90595 38.6143C7.88797 38.458 7.83005 38.3323 7.73213 38.2371C7.63294 38.142 7.50738 38.0773 7.35545 38.0428C7.20337 38.007 7.03764 37.9994 6.85824 38.0201C6.67761 38.0408 6.51728 38.0858 6.37723 38.1551C6.23578 38.2233 6.12756 38.3149 6.05248 38.43C5.97744 38.545 5.94889 38.6807 5.96682 38.837C5.98521 38.9972 6.04408 39.1254 6.14341 39.2217C6.24259 39.3168 6.36888 39.3821 6.52227 39.4178C6.67421 39.4522 6.84049 39.4591 7.02116 39.4383C7.20051 39.4177 7.3603 39.3734 7.50044 39.3054C7.64048 39.2361 7.74802 39.1439 7.82306 39.0289C7.89669 38.9126 7.92433 38.7745 7.90595 38.6143ZM8.22957 36.556L5.26003 36.4531L5.28322 35.7841L5.78783 35.8017L5.78901 35.7668C5.62105 35.6991 5.49181 35.592 5.40143 35.4457C5.30969 35.2992 5.26729 35.1268 5.27419 34.9283C5.28113 34.7273 5.33597 34.5595 5.4387 34.4249C5.5402 34.2891 5.6757 34.1957 5.84521 34.1448L5.8463 34.1139C5.6836 34.0424 5.556 33.927 5.46344 33.7677C5.36965 33.607 5.32648 33.4191 5.33393 33.2038C5.34342 32.9306 5.43747 32.7106 5.61615 32.5439C5.79487 32.3772 6.0498 32.2995 6.38105 32.311L8.37424 32.3801L8.34995 33.0819L6.46498 33.0166C6.28068 33.0102 6.14431 33.0545 6.05584 33.1495C5.96609 33.2444 5.91879 33.3628 5.91385 33.5046C5.90804 33.6734 5.95629 33.8074 6.05865 33.9064C6.15979 34.0041 6.29412 34.0559 6.46167 34.0617L8.31377 34.1259L8.28999 34.8121L6.37605 34.7458C6.22267 34.7405 6.0986 34.7827 6.00391 34.8723C5.90922 34.9606 5.85933 35.0789 5.85415 35.2271C5.8507 35.3276 5.87331 35.4201 5.92197 35.5043C5.96941 35.5886 6.03864 35.6568 6.12974 35.709C6.21958 35.7611 6.32567 35.7893 6.44814 35.7935L8.25381 35.8561L8.22957 36.556ZM8.80136 29.8277L8.61687 30.5712L5.10764 28.2635L5.32099 27.4036L9.50244 27.0021L9.31795 27.7455L6.00659 28.0141L5.99914 28.0442L8.80136 29.8277ZM7.29979 29.4292L7.80286 27.4015L8.36239 27.5403L7.85928 29.5681L7.29979 29.4292ZM10.1693 25.4458C10.0611 25.722 9.90758 25.9354 9.70866 26.086C9.51024 26.2354 9.28322 26.3217 9.02765 26.3448C8.77131 26.3663 8.50325 26.3222 8.22348 26.2127C7.94249 26.1026 7.7157 25.9514 7.54311 25.7591C7.36929 25.5664 7.26093 25.348 7.21799 25.1041C7.17432 24.8584 7.20542 24.6005 7.31123 24.3304C7.39921 24.1058 7.5185 23.9233 7.66908 23.7829C7.81893 23.6407 7.98916 23.5474 8.17968 23.503C8.36906 23.458 8.56621 23.4674 8.77117 23.531L8.52704 24.1543C8.38386 24.1273 8.24931 24.1438 8.1233 24.2038C7.99651 24.2622 7.90236 24.3701 7.84072 24.5274C7.78851 24.6607 7.77866 24.7918 7.81121 24.9209C7.84253 25.0495 7.9138 25.1682 8.02497 25.2768C8.1366 25.3843 8.28549 25.4744 8.47161 25.5474C8.66014 25.6212 8.83304 25.6571 8.99038 25.655C9.14649 25.6525 9.28073 25.6157 9.39299 25.5448C9.50457 25.4721 9.58691 25.3679 9.64007 25.2323C9.6777 25.1362 9.69332 25.0433 9.68696 24.9535C9.67984 24.8621 9.65156 24.7769 9.60212 24.698C9.55273 24.6191 9.48196 24.5505 9.38981 24.4922L9.63394 23.8691C9.82356 23.9613 9.9745 24.087 10.0868 24.2459C10.1978 24.4044 10.2623 24.5861 10.2803 24.7912C10.2971 24.9958 10.2601 25.2141 10.1693 25.4458ZM11.2781 22.9953C11.1902 23.1617 11.0812 23.2959 10.9514 23.398C10.8211 23.4983 10.6767 23.5561 10.5182 23.5715C10.3604 23.5858 10.1954 23.5475 10.0233 23.4564C9.87513 23.3781 9.76704 23.2859 9.69904 23.1799C9.63108 23.074 9.59304 22.9583 9.58496 22.8329C9.57684 22.7075 9.58932 22.5778 9.62237 22.4435C9.65492 22.3075 9.69809 22.1721 9.75192 22.0372C9.81734 21.8748 9.86913 21.7425 9.90722 21.64C9.94417 21.537 9.96042 21.4566 9.95597 21.3989C9.95098 21.3393 9.91884 21.2939 9.85956 21.2625L9.8493 21.2571C9.72047 21.189 9.60053 21.1744 9.48945 21.2135C9.37837 21.2525 9.28486 21.3438 9.20891 21.4874C9.12875 21.639 9.0982 21.7768 9.11731 21.9007C9.13701 22.0234 9.18372 22.124 9.25753 22.2024L8.86977 22.737C8.73427 22.607 8.64071 22.4612 8.589 22.2997C8.53616 22.1375 8.52304 21.9665 8.54965 21.7865C8.57511 21.6059 8.63635 21.4239 8.7334 21.2403C8.80032 21.1138 8.88175 20.9957 8.97772 20.8859C9.07368 20.7762 9.18331 20.6876 9.30656 20.62C9.42867 20.5518 9.56445 20.5171 9.71388 20.5159C9.86396 20.5136 10.0262 20.5585 10.2006 20.6508L11.9586 21.5803L11.6438 22.1755L11.283 21.9847L11.2721 22.0052C11.3253 22.0814 11.3656 22.1706 11.3933 22.2728C11.4204 22.3732 11.4262 22.4849 11.4107 22.608C11.3947 22.7294 11.3505 22.8584 11.2781 22.9953ZM10.9083 22.594C10.974 22.4697 11.0065 22.349 11.0057 22.2319C11.0037 22.1141 10.9747 22.0091 10.9185 21.9166C10.863 21.8231 10.7867 21.7507 10.6899 21.6994L10.3803 21.5358C10.386 21.5636 10.3834 21.6045 10.3723 21.6584C10.3619 21.7113 10.3467 21.7689 10.3268 21.8313C10.307 21.8938 10.2863 21.955 10.2647 22.0151C10.2431 22.0752 10.2243 22.1273 10.2084 22.1713C10.1721 22.2703 10.1489 22.3638 10.1388 22.4518C10.1287 22.5399 10.1382 22.6185 10.1672 22.6878C10.195 22.7565 10.2489 22.812 10.3287 22.8542C10.4427 22.9145 10.5507 22.9184 10.6529 22.8659C10.755 22.8134 10.8402 22.7228 10.9083 22.594ZM13.0007 20.11C12.8667 20.3012 12.6977 20.4379 12.4937 20.52C12.2896 20.6022 12.0634 20.6217 11.815 20.5783C11.5667 20.535 11.3089 20.4196 11.0417 20.2324C10.7714 20.0429 10.5743 19.8387 10.4506 19.6197C10.3266 19.3989 10.2703 19.1792 10.2819 18.9606C10.2923 18.7411 10.3631 18.5379 10.4941 18.351C10.594 18.2084 10.7004 18.1082 10.8134 18.0504C10.9253 17.9918 11.034 17.9593 11.1393 17.9528C11.2436 17.9455 11.3357 17.9479 11.4155 17.9598L11.4322 17.936L10.2187 17.0856L10.6217 16.5106L13.866 18.7842L13.4708 19.3482L13.0874 19.0795L13.063 19.1144C13.1015 19.1854 13.1343 19.2722 13.1616 19.3748C13.1879 19.4767 13.192 19.5898 13.1741 19.7143C13.1562 19.8387 13.0984 19.9706 13.0007 20.11ZM12.6423 19.6203C12.7275 19.4989 12.7672 19.3724 12.7617 19.241C12.7551 19.1088 12.7082 18.9791 12.6211 18.8519C12.5339 18.7246 12.4116 18.6058 12.2542 18.4955C12.0968 18.3853 11.9445 18.3116 11.7973 18.2745C11.6507 18.2364 11.5153 18.2376 11.3909 18.278C11.2673 18.3173 11.1622 18.3988 11.0756 18.5223C10.9861 18.6501 10.9446 18.7801 10.9512 18.9123C10.9577 19.0444 11.0045 19.1732 11.0913 19.2987C11.1782 19.4241 11.2972 19.5398 11.4482 19.6456C11.6003 19.7522 11.7512 19.8257 11.9009 19.866C12.0502 19.9046 12.1892 19.9051 12.3178 19.8677C12.4461 19.8284 12.5542 19.746 12.6423 19.6203ZM15.2462 17.2595C15.0477 17.4816 14.8301 17.6321 14.5934 17.7111C14.3566 17.7883 14.1144 17.7941 13.8669 17.7285C13.6184 17.6621 13.3783 17.5252 13.1466 17.3181C12.9187 17.1144 12.7574 16.8923 12.6627 16.652C12.5678 16.4098 12.5424 16.1673 12.5863 15.9247C12.6293 15.6811 12.7454 15.4536 12.9345 15.2421C13.0565 15.1056 13.1938 14.9965 13.3463 14.9149C13.4988 14.8315 13.6623 14.7839 13.837 14.7724C14.0126 14.7598 14.1951 14.7898 14.3846 14.8622C14.5731 14.9339 14.7645 15.0565 14.9587 15.2302L15.1187 15.3733L13.4955 17.189L13.1436 16.8744L14.3195 15.5591C14.2186 15.4707 14.1104 15.4128 13.9947 15.3855C13.878 15.3573 13.7631 15.361 13.65 15.3966C13.5378 15.4312 13.437 15.4985 13.3476 15.5985C13.2522 15.7052 13.1943 15.8221 13.1741 15.9493C13.1529 16.0756 13.1638 16.1988 13.2071 16.3187C13.2502 16.4369 13.3209 16.5407 13.419 16.6302L13.7262 16.9048C13.8551 17.0199 13.9867 17.0953 14.1211 17.1307C14.2545 17.1652 14.3836 17.1621 14.5083 17.1213C14.632 17.0797 14.7446 17.0022 14.846 16.8887C14.9139 16.8127 14.9648 16.7346 14.9986 16.6541C15.0315 16.5728 15.047 16.4906 15.0451 16.4076C15.0432 16.3246 15.0213 16.2437 14.9794 16.1647L15.47 15.7262C15.5713 15.8722 15.6314 16.0314 15.6502 16.2039C15.6689 16.3745 15.6449 16.5503 15.5783 16.7312C15.5108 16.9113 15.4001 17.0874 15.2462 17.2595ZM16.5139 15.8342L14.6158 13.5482L15.1308 13.1206L15.4533 13.509L15.4801 13.4868C15.419 13.3163 15.413 13.1486 15.4622 12.9837C15.5106 12.8179 15.6111 12.6715 15.7639 12.5447C15.9187 12.4162 16.0805 12.3455 16.2493 12.3328C16.4182 12.3182 16.5781 12.3573 16.7288 12.45L16.7526 12.4303C16.6978 12.2613 16.6991 12.0892 16.7565 11.9141C16.8141 11.7372 16.9258 11.58 17.0915 11.4424C17.3018 11.2678 17.5287 11.1917 17.772 11.2142C18.0154 11.2368 18.2429 11.3756 18.4546 11.6306L19.7286 13.165L19.1884 13.6136L17.9836 12.1625C17.8658 12.0206 17.742 11.9482 17.6122 11.9454C17.4816 11.9415 17.3617 11.9849 17.2526 12.0755C17.1226 12.1834 17.0547 12.3085 17.0488 12.4509C17.0431 12.5914 17.0938 12.7261 17.2009 12.8551L18.3847 14.2809L17.8564 14.7196L16.633 13.2461C16.535 13.1281 16.421 13.0635 16.2911 13.0524C16.1621 13.0404 16.0406 13.0818 15.9265 13.1765C15.8491 13.2408 15.7951 13.3191 15.7646 13.4115C15.7332 13.5029 15.7283 13.6 15.7499 13.7028C15.7707 13.8045 15.8202 13.9025 15.8985 13.9968L17.0527 15.3869L16.5139 15.8342ZM21.1715 13.5483C21.0901 13.5981 21.0107 13.6376 20.9334 13.6669C20.8578 13.6965 20.7946 13.7155 20.7438 13.7239L20.5975 13.1738C20.7 13.146 20.7849 13.1106 20.8524 13.0677C20.9199 13.0249 20.9667 12.9667 20.9928 12.8933C21.0208 12.8203 21.0235 12.7248 21.0013 12.6069L20.9686 12.4387L18.466 10.4142L19.0996 10.0264L20.8552 11.5827L20.8816 11.5666L20.2958 9.29417L20.931 8.90537L21.6554 12.3675C21.6902 12.5307 21.6979 12.684 21.6784 12.8275C21.6595 12.9721 21.6089 13.1044 21.5266 13.2243C21.4461 13.3447 21.3277 13.4527 21.1715 13.5483ZM25.2518 10.258C24.9998 10.3571 24.7652 10.3967 24.5482 10.3767C24.331 10.3568 24.1429 10.2888 23.9836 10.1727C23.825 10.0549 23.7073 9.89815 23.6303 9.70254C23.5723 9.55492 23.5508 9.41229 23.566 9.27465C23.5824 9.13661 23.6249 8.99793 23.6935 8.8587C23.7632 8.71902 23.8501 8.57335 23.9539 8.42164L24.4326 7.72002C24.5041 7.61983 24.5507 7.52528 24.5725 7.4363C24.5956 7.34687 24.5887 7.25536 24.5519 7.16175C24.5207 7.08254 24.4576 7.02076 24.3626 6.97636C24.2687 6.93151 24.1636 6.93197 24.0472 6.97777C23.9691 7.00841 23.9075 7.05417 23.8621 7.11495C23.8174 7.1741 23.7899 7.2397 23.7794 7.31169C23.7701 7.38324 23.7784 7.45201 23.8044 7.51806C23.8361 7.59845 23.8903 7.67131 23.9673 7.73668C24.0455 7.80155 24.138 7.86424 24.245 7.92475C24.3531 7.98476 24.4681 8.04831 24.5901 8.11536L27.1173 9.46213L26.4116 9.73963L24.3279 8.6591C24.1721 8.5763 24.0204 8.49386 23.8732 8.41183C23.7271 8.32931 23.5965 8.23516 23.4815 8.12934C23.3672 8.02185 23.2798 7.89129 23.2194 7.73768C23.151 7.56368 23.1301 7.39245 23.1567 7.22399C23.1828 7.05435 23.2523 6.9016 23.3652 6.76578C23.4792 6.62946 23.6335 6.52305 23.8279 6.44661C24.0224 6.37016 24.2043 6.34297 24.3737 6.36503C24.5431 6.38709 24.6907 6.44688 24.8163 6.54439C24.9419 6.64185 25.0342 6.76559 25.0933 6.91562C25.1617 7.08967 25.1798 7.26267 25.1477 7.43467C25.115 7.60544 25.0439 7.77685 24.9341 7.9489L24.4033 8.78743C24.3159 8.92439 24.2636 9.04886 24.2467 9.16085C24.2293 9.27161 24.2331 9.35881 24.2581 9.42241C24.2963 9.51965 24.3556 9.59818 24.436 9.65801C24.5163 9.71789 24.6103 9.75438 24.718 9.76746C24.8265 9.77885 24.9407 9.76097 25.0607 9.71376C25.1927 9.66187 25.3114 9.58125 25.4166 9.47194C25.5215 9.36145 25.605 9.23021 25.6672 9.07827C25.7294 8.92634 25.7615 8.76128 25.7635 8.58311C25.765 8.40375 25.7287 8.21986 25.6547 8.03143L26.2145 7.81126C26.3061 8.04409 26.36 8.25708 26.3764 8.45019C26.3922 8.64212 26.3827 8.81353 26.3479 8.96443C26.3125 9.11414 26.2631 9.24233 26.1998 9.34901C26.179 9.38074 26.1594 9.41197 26.141 9.44279C26.1226 9.47357 26.1031 9.5048 26.0823 9.53653C25.9989 9.70513 25.8811 9.85126 25.7287 9.97487C25.5776 10.0981 25.4186 10.1924 25.2518 10.258ZM28.834 8.99684L28.0799 5.10755L29.5384 4.82479C29.8371 4.76686 30.0979 4.77018 30.3206 4.83468C30.5446 4.89901 30.7266 5.01476 30.8667 5.182C31.0079 5.34774 31.1026 5.55469 31.1507 5.80282C31.199 6.05226 31.1878 6.27905 31.1171 6.48324C31.0474 6.68593 30.9196 6.85716 30.7339 6.99693C30.548 7.13547 30.3056 7.23371 30.0068 7.29163L28.968 7.493L28.8546 6.90809L29.7985 6.7251C29.9731 6.69124 30.1116 6.63944 30.2136 6.56972C30.3155 6.49876 30.3839 6.41129 30.4189 6.30729C30.455 6.20175 30.4596 6.08 30.4328 5.942C30.4061 5.804 30.356 5.69155 30.2827 5.60462C30.2091 5.51642 30.1117 5.45782 29.9904 5.42876C29.869 5.39844 29.7203 5.40035 29.5443 5.43448L28.8986 5.55968L29.5385 8.86024L28.834 8.99684ZM30.5015 6.84494L31.806 8.4206L31.0198 8.57308L29.7324 6.99407L30.5015 6.84494ZM33.559 8.34565C33.2619 8.36658 33.0008 8.32291 32.776 8.21464C32.5524 8.10501 32.3747 7.94041 32.2428 7.72088C32.1109 7.50008 32.0341 7.23461 32.0122 6.92461C31.9907 6.6197 32.0298 6.34805 32.1293 6.10964C32.23 5.86982 32.3807 5.67821 32.5813 5.53481C32.7819 5.39009 33.0237 5.30774 33.3067 5.28781C33.4893 5.27492 33.6638 5.29235 33.8301 5.34011C33.9975 5.3865 34.148 5.4664 34.2814 5.57984C34.416 5.69314 34.5261 5.84181 34.6114 6.02584C34.6967 6.2086 34.7485 6.4299 34.7668 6.68974L34.7819 6.90396L32.3525 7.07514L32.3193 6.60431L34.0791 6.48029C34.0684 6.3466 34.0311 6.22966 33.9672 6.12943C33.9031 6.02793 33.8182 5.95053 33.7123 5.89724C33.6077 5.84385 33.4885 5.82188 33.3547 5.83128C33.2119 5.84136 33.0889 5.88494 32.9857 5.96202C32.8825 6.03783 32.8046 6.13379 32.752 6.24996C32.7006 6.36476 32.6789 6.48846 32.687 6.62106L32.7159 7.03211C32.7281 7.20447 32.7701 7.35019 32.8418 7.46926C32.9135 7.58701 33.0082 7.67472 33.126 7.73232C33.2437 7.7887 33.3785 7.81149 33.5303 7.80082C33.632 7.79365 33.7229 7.77299 33.8033 7.7389C33.8835 7.70354 33.9519 7.65538 34.0083 7.59455C34.0648 7.53367 34.1056 7.46032 34.1305 7.37452L34.7879 7.40189C34.7589 7.57721 34.691 7.73323 34.5843 7.87005C34.4788 8.00546 34.3391 8.11486 34.1653 8.19821C33.9914 8.28028 33.7893 8.32944 33.559 8.34565ZM37.8999 6.10792L37.2591 6.15081C37.2438 6.08563 37.2148 6.02375 37.1721 5.96519C37.1306 5.90664 37.0732 5.85843 37 5.82052C36.9267 5.78257 36.836 5.76137 36.7277 5.75683C36.5821 5.75075 36.4584 5.77717 36.3565 5.83618C36.256 5.8952 36.2042 5.975 36.2013 6.07555C36.1964 6.16184 36.225 6.23339 36.2872 6.29022C36.3506 6.34706 36.457 6.39604 36.6063 6.43716L37.1082 6.56658C37.3865 6.6389 37.5912 6.74362 37.7223 6.88076C37.8547 7.01794 37.917 7.1929 37.9095 7.40552C37.9003 7.59232 37.8387 7.75497 37.7245 7.89343C37.6116 8.0307 37.4581 8.13529 37.2641 8.2072C37.0701 8.2791 36.8493 8.30988 36.602 8.29953C36.2386 8.28432 35.9493 8.19607 35.734 8.03474C35.5188 7.87214 35.3957 7.65333 35.3646 7.37842L36.0496 7.34124C36.0749 7.47657 36.1364 7.58043 36.234 7.65293C36.3317 7.72542 36.461 7.76505 36.6221 7.77181C36.7883 7.77876 36.9231 7.75021 37.0264 7.68611C37.1311 7.62206 37.1856 7.5398 37.1897 7.4393C37.1933 7.35427 37.1634 7.28269 37.1 7.22454C37.0379 7.16643 36.9391 7.11967 36.8038 7.08436L36.3019 6.95684C36.0196 6.88566 35.8131 6.77699 35.6824 6.63082C35.5517 6.48338 35.4916 6.30143 35.502 6.08504C35.5084 5.902 35.5646 5.74557 35.6707 5.61579C35.7781 5.48478 35.9236 5.38632 36.1071 5.32041C36.2919 5.25327 36.5028 5.22467 36.7399 5.23461C37.0878 5.24914 37.3585 5.33471 37.552 5.49123C37.7468 5.64784 37.8628 5.85339 37.8999 6.10792ZM39.7333 8.6246C39.4391 8.57771 39.1947 8.47607 39.0002 8.31973C38.8073 8.1623 38.6714 7.96175 38.5927 7.71807C38.5143 7.47312 38.4995 7.19716 38.5483 6.89025C38.5965 6.58842 38.696 6.33262 38.847 6.12294C38.9994 5.91217 39.1895 5.75965 39.4174 5.66536C39.6455 5.56981 39.8997 5.54439 40.1798 5.58901C40.3606 5.61783 40.5266 5.67435 40.6778 5.75851C40.8304 5.84158 40.9588 5.95348 41.0631 6.09412C41.1686 6.23502 41.2421 6.40475 41.2836 6.60331C41.3253 6.80064 41.3256 7.02789 41.2846 7.28518L41.2508 7.49722L38.8457 7.11391L38.92 6.6478L40.6622 6.92543C40.6821 6.79279 40.6722 6.67045 40.6326 6.55832C40.5932 6.44497 40.528 6.35037 40.4369 6.27447C40.3471 6.19875 40.236 6.15036 40.1035 6.12925C39.9622 6.10674 39.8325 6.12135 39.7146 6.17306C39.5968 6.22349 39.4992 6.29935 39.4217 6.40062C39.3457 6.50081 39.2965 6.61638 39.2743 6.74735L39.2095 7.15426C39.1823 7.3249 39.1902 7.47634 39.2331 7.60858C39.2762 7.73949 39.3487 7.84635 39.4504 7.92915C39.5523 8.01073 39.6784 8.06343 39.8287 8.0874C39.9293 8.10342 40.0226 8.10392 40.1086 8.0889C40.1947 8.0726 40.2722 8.04123 40.341 7.9947C40.4098 7.94822 40.466 7.88603 40.5098 7.80808L41.1439 7.98358C41.076 8.14777 40.9746 8.28437 40.8396 8.39345C40.7062 8.50149 40.5454 8.57644 40.3572 8.61824C40.1692 8.65883 39.9612 8.66092 39.7333 8.6246ZM42.4279 9.19825C42.2466 9.14728 42.0924 9.06906 41.9654 8.96365C41.8399 8.85734 41.7529 8.72833 41.7045 8.57671C41.6573 8.42545 41.6601 8.25608 41.7128 8.06865C41.7583 7.90727 41.8256 7.78221 41.9149 7.69346C42.0042 7.60467 42.1092 7.54316 42.23 7.50884C42.3509 7.47452 42.4804 7.45936 42.6186 7.46345C42.7584 7.46658 42.8999 7.48029 43.0432 7.50453C43.2156 7.53431 43.3559 7.55701 43.4641 7.57271C43.5725 7.58715 43.6545 7.5861 43.7101 7.56963C43.7672 7.55219 43.8049 7.5112 43.823 7.44665L43.8262 7.43549C43.8657 7.29522 43.8546 7.17487 43.7931 7.07451C43.7316 6.97414 43.6227 6.90196 43.4662 6.85793C43.3011 6.81149 43.16 6.81063 43.0429 6.85539C42.9271 6.90046 42.8386 6.96733 42.7775 7.05598L42.1732 6.78952C42.2718 6.62968 42.3946 6.50748 42.5416 6.42291C42.689 6.33711 42.8535 6.28827 43.035 6.27642C43.2169 6.26326 43.4078 6.28482 43.6076 6.34106C43.7455 6.37983 43.8781 6.43458 44.0056 6.5053C44.133 6.57598 44.2428 6.66445 44.3348 6.77077C44.4271 6.87577 44.4897 7.00124 44.5223 7.14705C44.5562 7.29322 44.5464 7.46131 44.4929 7.65125L43.9543 9.5655L43.3063 9.38315L43.4168 8.99025L43.3945 8.98394C43.3312 9.05186 43.2525 9.1101 43.1585 9.15867C43.066 9.20633 42.9579 9.23557 42.8343 9.24633C42.7123 9.25622 42.5769 9.2402 42.4279 9.19825ZM42.7423 8.7522C42.8776 8.79029 43.0024 8.7966 43.1168 8.77118C43.2314 8.74449 43.328 8.69396 43.4066 8.61961C43.4863 8.54561 43.5411 8.45582 43.5708 8.35032L43.6656 8.01327C43.6396 8.02471 43.5991 8.0307 43.544 8.03129C43.4902 8.0322 43.4306 8.02952 43.3654 8.02326C43.3002 8.01695 43.2359 8.00959 43.1727 8.00115C43.1094 7.99275 43.0545 7.98535 43.0081 7.97895C42.9037 7.96433 42.8074 7.96134 42.7192 7.97001C42.6311 7.97868 42.5561 8.00451 42.4945 8.04745C42.4332 8.08912 42.3903 8.15345 42.3659 8.24033C42.3309 8.36449 42.3498 8.47094 42.4226 8.55978C42.4955 8.64857 42.602 8.71271 42.7423 8.7522ZM44.6194 9.78748L45.6875 7.01481L46.3212 7.25885L46.1428 7.72097L46.1719 7.73209C46.284 7.59151 46.4184 7.50153 46.5745 7.46218C46.7321 7.42209 46.8905 7.43263 47.0494 7.49382C47.0852 7.50771 47.1252 7.52505 47.1683 7.54579C47.2128 7.56581 47.2491 7.58465 47.2773 7.60226L47.0457 8.20338C47.0217 8.18309 46.9808 8.15772 46.9236 8.12735C46.8678 8.09621 46.8124 8.06997 46.757 8.04863C46.6376 8.00274 46.5205 7.98735 46.4057 8.00251C46.2922 8.01686 46.191 8.05875 46.1024 8.12816C46.0135 8.19757 45.9463 8.29122 45.9009 8.40916L45.2729 10.0392L44.6194 9.78748ZM47.6372 11.1868C47.3721 11.0534 47.1738 10.8806 47.0426 10.6686C46.9123 10.4572 46.8474 10.2231 46.8478 9.96647C46.8505 9.70926 46.9191 9.44647 47.0544 9.17805C47.1901 8.90854 47.3617 8.69678 47.5691 8.5428C47.7771 8.38764 48.0049 8.30003 48.2514 8.27996C48.5002 8.25931 48.7539 8.31424 49.0131 8.44475C49.2288 8.55319 49.3995 8.68892 49.5252 8.85189C49.6528 9.01431 49.7299 9.19249 49.7563 9.38632C49.7835 9.57902 49.7558 9.77449 49.6736 9.97264L49.0758 9.67163C49.1157 9.53159 49.1117 9.39608 49.064 9.26503C49.0172 9.13338 48.9187 9.02957 48.768 8.95362C48.64 8.88925 48.5102 8.86723 48.379 8.88762C48.2478 8.90686 48.123 8.96679 48.0045 9.06738C47.8874 9.16857 47.7834 9.30843 47.6935 9.48696C47.6027 9.66782 47.551 9.83664 47.5383 9.99348C47.5265 10.1492 47.5505 10.2862 47.6109 10.4046C47.6726 10.5225 47.7689 10.6141 47.8987 10.6797C47.9909 10.7261 48.0821 10.7503 48.172 10.7523C48.2637 10.7537 48.3513 10.7334 48.4344 10.6916C48.5174 10.6497 48.5923 10.5856 48.6591 10.4993L49.2569 10.8002C49.1471 10.9805 49.0082 11.1191 48.8393 11.216C48.6713 11.3119 48.4843 11.3593 48.2787 11.3581C48.073 11.3558 47.8592 11.2987 47.6372 11.1868ZM50.8335 10.9327L49.8756 12.3865L49.291 12.0012L51.4708 8.69306L52.0423 9.06983L51.2198 10.3185L51.2488 10.3376C51.3991 10.2359 51.5621 10.1848 51.7368 10.1842C51.9134 10.1833 52.0964 10.2452 52.2861 10.3701C52.4582 10.4837 52.5848 10.6187 52.6656 10.7753C52.746 10.9319 52.7755 11.1027 52.7541 11.2877C52.7337 11.4735 52.6574 11.6665 52.5253 11.8668L51.4844 13.4466L50.8998 13.0613L51.8812 11.5719C51.991 11.4051 52.0333 11.2469 52.0083 11.0975C51.9851 10.9478 51.8962 10.8222 51.7423 10.7207C51.6388 10.6526 51.5317 10.6142 51.42 10.6055C51.3101 10.5964 51.2043 10.6186 51.1027 10.6721C51.0019 10.7263 50.9125 10.8132 50.8335 10.9327ZM57.3789 15.2251L56.8596 14.7218C56.9273 14.6222 56.9731 14.5203 56.9967 14.4159C57.0217 14.3107 57.0267 14.2061 57.0122 14.1024C56.9976 13.9987 56.964 13.8984 56.9105 13.8017C56.8587 13.705 56.7893 13.6144 56.7021 13.53C56.5473 13.3802 56.3725 13.2864 56.1778 13.2485C55.984 13.2096 55.7806 13.232 55.5686 13.3157C55.3575 13.3984 55.1482 13.5468 54.9412 13.7608C54.7302 13.9785 54.5863 14.1947 54.5095 14.4093C54.4346 14.6239 54.4197 14.8267 54.4646 15.0175C54.5114 15.2082 54.6117 15.3781 54.7656 15.527C54.8509 15.6095 54.9412 15.6756 55.037 15.7251C55.1342 15.7746 55.234 15.8058 55.3366 15.8188C55.4397 15.8326 55.5432 15.8269 55.6467 15.8015C55.7515 15.777 55.8519 15.7307 55.9486 15.6626L56.4656 16.1687C56.3149 16.2851 56.1497 16.3712 55.9703 16.427C55.7915 16.4837 55.6063 16.5071 55.4147 16.4975C55.2236 16.4868 55.0343 16.4397 54.8459 16.3561C54.6584 16.2715 54.48 16.1472 54.3107 15.983C54.0601 15.7408 53.8931 15.4667 53.8091 15.1607C53.7247 14.8547 53.7319 14.5376 53.8304 14.2095C53.9294 13.8814 54.1269 13.5645 54.4228 13.2588C54.7197 12.9522 55.0307 12.7452 55.3552 12.6378C55.6812 12.5295 55.998 12.5126 56.3067 12.587C56.6154 12.6614 56.8937 12.8188 57.142 13.0593C57.3004 13.2126 57.4262 13.3775 57.5192 13.5539C57.6123 13.7302 57.6704 13.9131 57.6935 14.1024C57.7176 14.2908 57.7035 14.4802 57.6522 14.6708C57.6023 14.8613 57.511 15.0461 57.3789 15.2251ZM56.7343 18.6441C56.5496 18.4103 56.4388 18.1701 56.4016 17.9233C56.3662 17.6768 56.4025 17.4372 56.5096 17.2046C56.6177 16.9713 56.7938 16.7582 57.0376 16.5656C57.2777 16.3762 57.5242 16.2555 57.7771 16.2035C58.0322 16.1517 58.275 16.1683 58.5065 16.2534C58.739 16.3376 58.9432 16.491 59.1194 16.7137C59.2329 16.8574 59.3164 17.0114 59.3709 17.1757C59.4267 17.3402 59.4453 17.5094 59.4267 17.6836C59.409 17.8587 59.3482 18.0333 59.2442 18.2075C59.1412 18.3809 58.9873 18.5483 58.783 18.7098L58.6146 18.8428L57.1048 16.9316L57.4752 16.639L58.5687 18.0235C58.6731 17.9394 58.749 17.8427 58.7957 17.7334C58.8434 17.6233 58.8597 17.5095 58.8438 17.392C58.8293 17.2755 58.7803 17.1646 58.6972 17.0594C58.6082 16.947 58.5029 16.87 58.3813 16.8281C58.2605 16.7854 58.1375 16.7751 58.0117 16.7971C57.8878 16.8193 57.7734 16.871 57.6686 16.9524L57.3453 17.2077C57.2096 17.3148 57.1129 17.4315 57.0548 17.5579C56.9976 17.6834 56.9786 17.8111 56.9972 17.9409C57.0171 18.0699 57.0743 18.1942 57.1683 18.3136C57.2314 18.3935 57.3 18.4571 57.3735 18.5043C57.4479 18.5507 57.526 18.5801 57.6082 18.5925C57.6903 18.6049 57.7739 18.5972 57.8588 18.5695L58.206 19.1282C58.0449 19.2029 57.8778 19.2347 57.7049 19.2235C57.5333 19.2126 57.3644 19.1588 57.1978 19.0621C57.0317 18.9646 56.8773 18.8253 56.7343 18.6441ZM59.7799 19.82L58.2955 20.7297L57.9296 20.1326L60.4631 18.5802L60.8126 19.1509L60.3823 19.4147L60.4004 19.4443C60.5779 19.4157 60.7477 19.4395 60.9093 19.5159C61.0718 19.5933 61.2112 19.7266 61.3269 19.9158C61.4341 20.0906 61.4899 20.2658 61.4949 20.4413C61.4999 20.618 61.4536 20.7856 61.3555 20.944C61.2584 21.1035 61.1081 21.2447 60.9052 21.3675L59.2919 22.356L58.926 21.7589L60.4467 20.827C60.616 20.7233 60.7218 20.5981 60.7636 20.4515C60.8058 20.306 60.7799 20.1563 60.6855 20.0023C60.6215 19.8979 60.5416 19.8191 60.4458 19.7661C60.3514 19.7134 60.247 19.6902 60.133 19.6966C60.0196 19.7041 59.902 19.7452 59.7799 19.82ZM62.9521 23.0216L62.4641 23.2572L61.7214 21.7191L62.2089 21.4835L62.9521 23.0216ZM63.0333 21.5536L63.3379 22.1841L60.8262 23.3975C60.7413 23.4384 60.6828 23.4826 60.6496 23.5301C60.6183 23.5781 60.6051 23.6275 60.6097 23.6783C60.6142 23.7291 60.6292 23.7807 60.6542 23.8329C60.6732 23.8724 60.6937 23.907 60.715 23.9367C60.7372 23.9676 60.755 23.9906 60.7677 24.0058L60.3264 24.3502C60.2983 24.3221 60.2624 24.2801 60.2179 24.2241C60.1744 24.1693 60.1299 24.0977 60.0845 24.0094C60.0032 23.8538 59.9583 23.7 59.9496 23.5482C59.9419 23.3958 59.9755 23.2555 60.0513 23.1274C60.1276 23.0003 60.2493 22.897 60.4172 22.8174L63.0333 21.5536ZM60.8866 26.0796C60.7836 25.8002 60.7522 25.5374 60.7935 25.2912C60.8362 25.0459 60.9442 24.8292 61.1181 24.6412C61.2933 24.4528 61.5267 24.3047 61.8181 24.197C62.105 24.0911 62.3769 24.0525 62.6334 24.0814C62.8917 24.1111 63.1182 24.2021 63.312 24.3546C63.5068 24.5067 63.6534 24.7158 63.7519 24.9819C63.8155 25.1536 63.8472 25.326 63.8481 25.499C63.8504 25.6728 63.8159 25.8395 63.7442 25.9993C63.6729 26.1604 63.5613 26.3076 63.4083 26.441C63.2567 26.574 63.0587 26.6856 62.8145 26.7759L62.613 26.8503L61.7691 24.5658L62.2117 24.4022L62.8231 26.0571C62.9484 26.0094 63.0501 25.9409 63.1286 25.8514C63.2081 25.7616 63.2585 25.6583 63.2803 25.5418C63.302 25.4264 63.2898 25.3058 63.2435 25.18C63.194 25.0457 63.1177 24.9398 63.0147 24.8623C62.913 24.7844 62.7991 24.7365 62.6729 24.7185C62.5485 24.7013 62.4237 24.7151 62.2984 24.7599L61.9121 24.9027C61.75 24.9626 61.6215 25.0436 61.5276 25.1458C61.4345 25.2476 61.3769 25.363 61.3546 25.4923C61.3333 25.6211 61.3492 25.7569 61.4018 25.8996C61.4372 25.9952 61.4822 26.0767 61.5376 26.1443C61.5938 26.2115 61.6592 26.2636 61.7337 26.3009C61.8077 26.338 61.8894 26.3566 61.9788 26.3566L62.1368 26.9954C61.9602 27.0166 61.7913 26.9951 61.6302 26.9309C61.4708 26.8675 61.3265 26.764 61.198 26.6204C61.0704 26.4764 60.9669 26.2961 60.8866 26.0796ZM61.5689 27.8632L64.4455 27.1198L64.6153 27.7771L64.136 27.9011L64.1437 27.931C64.3234 27.9406 64.4746 27.9974 64.5976 28.1015C64.722 28.2066 64.8055 28.3415 64.8477 28.5063C64.8577 28.5438 64.8664 28.5861 64.8745 28.6332C64.8845 28.6814 64.8904 28.7218 64.8922 28.7546L64.2685 28.9158C64.2708 28.8845 64.2681 28.8367 64.2594 28.7723C64.2522 28.7089 64.2413 28.6484 64.2263 28.591C64.1945 28.4674 64.1391 28.3632 64.0597 28.2784C63.9821 28.1946 63.8895 28.1367 63.781 28.1047C63.6729 28.0727 63.5576 28.0725 63.4355 28.1041L61.7441 28.5412L61.5689 27.8632ZM62.3111 31.3211L66.2532 30.9282L66.4007 32.4065C66.4307 32.7094 66.3998 32.9691 66.3072 33.1857C66.215 33.4035 66.0752 33.5749 65.8882 33.6998C65.7021 33.8259 65.4842 33.9014 65.234 33.9264C64.9812 33.9515 64.7515 33.9207 64.5445 33.8337C64.3375 33.7468 64.1673 33.605 64.0334 33.4084C63.9013 33.2116 63.82 32.9611 63.7896 32.657L63.692 31.6772L64.2789 31.6187L64.367 32.5023C64.3847 32.6794 64.4301 32.8213 64.5027 32.9281C64.5758 33.0348 64.6684 33.1098 64.7819 33.153C64.8949 33.1975 65.0216 33.2127 65.1614 33.1988C65.3012 33.1848 65.422 33.1449 65.5228 33.0792C65.624 33.0146 65.6984 32.9224 65.7461 32.8022C65.7951 32.6833 65.8106 32.5346 65.7929 32.3563L65.7279 31.7018L62.3824 32.0352L62.3111 31.3211ZM65.5259 37.4942L62.578 36.3729L62.5943 35.5993L65.5877 34.6049L65.5718 35.3514L63.3506 35.987L63.3497 36.0179L65.5418 36.7496L65.5259 37.4942ZM65.2994 39.7175L64.761 39.657L64.9521 37.9596L65.4901 38.0201L65.2994 39.7175ZM66.1506 38.5188L66.072 39.2147L63.3002 38.9028C63.2067 38.8922 63.1332 38.8983 63.0801 38.9208C63.0283 38.9448 62.9906 38.9795 62.967 39.0249C62.9439 39.0703 62.9289 39.1218 62.9226 39.1795C62.9176 39.2231 62.9162 39.2632 62.9189 39.2998C62.9212 39.3376 62.9235 39.3665 62.9266 39.3863L62.3692 39.4423C62.3606 39.4037 62.3524 39.349 62.3451 39.278C62.3374 39.2084 62.3379 39.1241 62.346 39.0251C62.3606 38.8502 62.4046 38.6962 62.4781 38.563C62.5526 38.43 62.6561 38.3293 62.7886 38.2611C62.9207 38.1943 63.0787 38.1718 63.263 38.1939L66.1506 38.5188ZM62.1363 40.3795C62.1576 40.264 62.2167 40.1726 62.3129 40.1051C62.4091 40.0376 62.5154 40.0152 62.632 40.0379C62.7464 40.0576 62.8368 40.1162 62.9026 40.2135C62.9684 40.3109 62.9911 40.4173 62.9698 40.5327C62.9493 40.6443 62.8908 40.7339 62.7945 40.8014C62.6978 40.8702 62.5925 40.8947 62.4781 40.875C62.401 40.8595 62.3342 40.8263 62.2779 40.7753C62.2217 40.7256 62.1803 40.6655 62.154 40.5951C62.1286 40.5262 62.1227 40.4543 62.1363 40.3795ZM61.6265 42.7289L65.3952 43.9504L65.1737 44.6332L61.9774 43.5971L61.4395 45.257L60.8671 45.0714L61.6265 42.7289ZM62.844 48.0353L62.3456 47.8228L63.0156 46.2517L63.514 46.4642L62.844 48.0353ZM64.0034 47.131L63.7288 47.7752L61.1626 46.6811C61.0763 46.6444 61.0042 46.6294 60.9465 46.6357C60.8902 46.6435 60.8439 46.6662 60.8085 46.7029C60.7736 46.7397 60.7445 46.7846 60.7214 46.8382C60.7046 46.8786 60.6919 46.9167 60.6832 46.9521C60.6746 46.9894 60.6687 47.0175 60.666 47.0375L60.1162 46.9313C60.119 46.8918 60.1271 46.8368 60.1399 46.7669C60.1526 46.6979 60.1771 46.6171 60.2138 46.525C60.2779 46.3616 60.3641 46.2267 60.4726 46.1201C60.5824 46.0138 60.71 45.9471 60.8566 45.9199C61.0024 45.8935 61.1603 45.9176 61.3306 45.9916L64.0034 47.131ZM59.2796 48.3013C59.3931 48.0975 59.547 47.9436 59.7413 47.8405C59.9356 47.7375 60.1585 47.6943 60.41 47.7116C60.6614 47.7288 60.9297 47.8165 61.2153 47.9749C61.504 48.1351 61.7214 48.3176 61.8671 48.5224C62.0137 48.7289 62.0923 48.9418 62.1036 49.1601C62.1163 49.3799 62.0673 49.5891 61.9565 49.7889C61.8721 49.9409 61.7768 50.0517 61.6701 50.1212C61.5652 50.1911 61.4604 50.2346 61.3564 50.2523C61.2534 50.27 61.1617 50.2778 61.0809 50.2741L61.0668 50.2996L62.3628 51.0186L62.0219 51.6323L58.5578 49.7103L58.892 49.1079L59.301 49.3354L59.3218 49.2981C59.276 49.2314 59.2342 49.1483 59.1966 49.0494C59.1598 48.9509 59.1439 48.8388 59.1484 48.713C59.1534 48.5873 59.197 48.4502 59.2796 48.3013ZM59.6873 48.7511C59.6155 48.8805 59.5892 49.0103 59.6083 49.1406C59.6287 49.2714 59.6886 49.3953 59.789 49.5129C59.8888 49.6304 60.0227 49.7358 60.1907 49.8288C60.3591 49.9223 60.518 49.9795 60.6682 50.0009C60.818 50.0236 60.9529 50.0081 61.0723 49.955C61.1912 49.9033 61.287 49.8111 61.3601 49.679C61.4359 49.5428 61.4636 49.4089 61.4431 49.2782C61.4227 49.1474 61.3628 49.0244 61.2634 48.9087C61.164 48.7929 61.0337 48.6903 60.8721 48.6009C60.71 48.511 60.552 48.4534 60.3991 48.4288C60.2465 48.4061 60.1081 48.4202 59.9841 48.4711C59.8607 48.5233 59.7617 48.6168 59.6873 48.7511ZM57.8919 50.6763C57.9577 50.5792 58.0485 50.5193 58.1638 50.4961C58.2791 50.4734 58.3853 50.4957 58.4829 50.5633C58.5796 50.6278 58.6386 50.7176 58.6595 50.8334C58.6809 50.9492 58.6586 51.0554 58.5923 51.1525C58.5288 51.2465 58.4394 51.3046 58.3236 51.3277C58.2079 51.3518 58.1012 51.3318 58.0045 51.2674C57.94 51.2224 57.8928 51.1648 57.8619 51.0958C57.8302 51.0272 57.8166 50.9555 57.8206 50.8806C57.8252 50.8075 57.8488 50.7394 57.8919 50.6763Z" fill="#17254E"/>
<path d="M17.714 61.3411L19.6604 57.8906L21.9046 59.1567L21.609 59.6805L19.9899 58.7672L19.4615 59.7041L20.9644 60.5517L20.6688 61.0755L19.1659 60.228L18.6346 61.1699L20.2673 62.0905L19.9717 62.6149L17.714 61.3411ZM23.6209 61.8922L23.0102 61.6938C23.0202 61.6275 23.0163 61.5594 22.9984 61.4891C22.9817 61.4192 22.9464 61.3533 22.8925 61.2907C22.8386 61.228 22.7622 61.1749 22.6635 61.1304C22.5306 61.0705 22.4059 61.0492 22.2894 61.066C22.1741 61.0832 22.0964 61.1382 22.0563 61.2303C22.0196 61.3088 22.0196 61.3856 22.0562 61.4614C22.0939 61.5381 22.1744 61.623 22.2977 61.7165L22.7154 62.0234C22.947 62.194 23.098 62.3675 23.1687 62.5436C23.2406 62.7202 23.2334 62.9058 23.1472 63.1001C23.0693 63.2704 22.9516 63.3984 22.7941 63.4842C22.6382 63.57 22.4569 63.6099 22.25 63.6045C22.0431 63.599 21.8268 63.5454 21.6011 63.4438C21.2694 63.2944 21.0337 63.1051 20.8938 62.8754C20.7546 62.6444 20.7216 62.3956 20.795 62.1287L21.4447 62.3488C21.4179 62.4837 21.4363 62.603 21.5 62.707C21.5636 62.8105 21.669 62.8954 21.816 62.9617C21.9677 63.0298 22.1034 63.0534 22.2232 63.0325C22.3442 63.0116 22.4253 62.9558 22.4666 62.8641C22.5015 62.7864 22.5004 62.7088 22.4632 62.6312C22.4271 62.554 22.3529 62.4741 22.2404 62.3911L21.8219 62.086C21.5863 61.9149 21.435 61.7369 21.3681 61.5526C21.3017 61.3674 21.3135 61.1763 21.4036 60.9793C21.4776 60.8118 21.5879 60.6874 21.7347 60.6061C21.8832 60.5244 22.0548 60.4872 22.2497 60.4945C22.4462 60.5008 22.6526 60.5526 22.869 60.6502C23.1865 60.7932 23.406 60.9729 23.5274 61.1904C23.65 61.4083 23.6812 61.642 23.6209 61.8922ZM25.705 61.8105L25.5251 62.3212L23.914 61.7537L24.0939 61.243L25.705 61.8105ZM24.7282 60.7115L25.3887 60.9443L24.462 63.575C24.4307 63.6639 24.4201 63.737 24.4301 63.7938C24.4419 63.8496 24.4672 63.8941 24.5062 63.9272C24.5452 63.9599 24.5921 63.9862 24.6468 64.0053C24.6882 64.0198 24.7269 64.0303 24.7632 64.0362C24.8006 64.0425 24.8293 64.0462 24.8492 64.048L24.7786 64.6036C24.7391 64.6031 24.6839 64.5986 24.6131 64.5904C24.5434 64.5823 24.4614 64.5627 24.3669 64.5323C24.1997 64.4788 24.0595 64.4016 23.9462 64.2999C23.8333 64.1973 23.7585 64.0738 23.7218 63.9299C23.6863 63.786 23.7 63.6267 23.7629 63.4519L24.7282 60.7115ZM26.3042 65.0907C26.0781 65.0326 25.8905 64.9227 25.7417 64.7607C25.5928 64.5991 25.4948 64.3939 25.4478 64.1465C25.4008 63.8986 25.4177 63.6167 25.4987 63.3008C25.5807 62.9807 25.7023 62.7247 25.8635 62.5318C26.0264 62.3375 26.2122 62.2077 26.4208 62.1414C26.6299 62.0738 26.845 62.0683 27.0661 62.1246C27.2347 62.1682 27.366 62.2322 27.46 62.3175C27.5543 62.4015 27.623 62.4918 27.6662 62.5881C27.7098 62.6829 27.7401 62.7701 27.7572 62.8491L27.7853 62.8564L28.1531 61.421L28.8332 61.5953L27.85 65.433L27.1829 65.2618L27.299 64.8083L27.2578 64.7979C27.2049 64.8587 27.1353 64.9205 27.0489 64.9822C26.9628 65.0426 26.8584 65.0861 26.7357 65.1134C26.6129 65.1406 26.4691 65.1329 26.3042 65.0907ZM26.636 64.5827C26.7797 64.6195 26.9121 64.6122 27.0331 64.5605C27.1544 64.5078 27.2593 64.4179 27.3476 64.2917C27.4359 64.1651 27.5039 64.0089 27.5516 63.8228C27.5993 63.6367 27.6145 63.4683 27.5972 63.3171C27.5813 63.1669 27.5324 63.0402 27.4508 62.9381C27.3703 62.8364 27.257 62.7669 27.1109 62.7293C26.9597 62.6907 26.8234 62.6975 26.7021 62.7506C26.5807 62.8032 26.4767 62.8922 26.3899 63.018C26.3032 63.1433 26.2369 63.2953 26.1911 63.4742C26.1451 63.6539 26.1295 63.821 26.1446 63.9753C26.1612 64.1288 26.2097 64.2591 26.2901 64.3662C26.372 64.4724 26.4874 64.5446 26.636 64.5827ZM30.6633 63.9572L30.5719 64.5264L28.811 64.2436L28.9024 63.6744L30.6633 63.9572ZM30.9418 65.9323L30.9766 65.4148L32.4391 64.1619C32.5793 64.038 32.6965 63.9277 32.7909 63.8305C32.8854 63.7334 32.9577 63.6381 33.0079 63.5445C33.0581 63.451 33.0869 63.3498 33.0942 63.2404C33.1026 63.1156 33.0815 63.0066 33.0308 62.914C32.9802 62.8205 32.9071 62.7456 32.8112 62.6902C32.7155 62.6344 32.6045 62.6026 32.4784 62.594C32.3484 62.5853 32.2328 62.6049 32.1314 62.6521C32.03 62.6984 31.9491 62.7687 31.8885 62.8627C31.8291 62.9571 31.7949 63.0715 31.7859 63.2068L31.1045 63.161C31.1214 62.9099 31.1933 62.6957 31.3202 62.5182C31.4472 62.3407 31.6144 62.2077 31.822 62.1196C32.0308 62.0315 32.2658 61.9961 32.527 62.0138C32.7921 62.0315 33.0217 62.0969 33.2157 62.209C33.4099 62.3216 33.5564 62.4678 33.6555 62.648C33.7559 62.8278 33.7987 63.0284 33.7838 63.2495C33.7739 63.3975 33.7358 63.5414 33.6696 63.6803C33.6034 63.8192 33.4931 63.9708 33.3386 64.1351C33.1854 64.299 32.9725 64.496 32.6998 64.7262L31.972 65.373L31.9702 65.4003L33.6918 65.5156L33.6517 66.1139L30.9418 65.9323ZM35.7822 66.1384C35.4639 66.1511 35.1875 66.0812 34.9531 65.9296C34.7198 65.7761 34.5359 65.5492 34.4014 65.2487C34.2681 64.9468 34.1929 64.58 34.1758 64.1483C34.16 63.7166 34.2066 63.3466 34.3157 63.0393C34.4261 62.7302 34.5915 62.4914 34.8119 62.3225C35.0337 62.1536 35.303 62.0629 35.62 62.0501C35.937 62.0379 36.2128 62.1069 36.4472 62.2576C36.6816 62.4083 36.8654 62.6335 36.9986 62.9326C37.1331 63.2318 37.2088 63.5967 37.2259 64.0271C37.2431 64.4602 37.1966 64.8324 37.0863 65.1438C36.9773 65.4543 36.8119 65.6944 36.5902 65.8642C36.3698 66.0344 36.1005 66.1257 35.7822 66.1384ZM35.7582 65.5333C36.0056 65.5238 36.196 65.3939 36.3294 65.1447C36.464 64.8946 36.5218 64.5314 36.503 64.0557C36.4905 63.7416 36.4472 63.4787 36.373 63.2672C36.2988 63.0561 36.1996 62.8986 36.0755 62.7951C35.9513 62.6902 35.8074 62.6412 35.6437 62.6475C35.3976 62.6575 35.2079 62.7874 35.0746 63.0379C34.9412 63.2872 34.8832 63.6476 34.9006 64.1192C34.9119 64.4352 34.954 64.6994 35.0269 64.9118C35.1012 65.1247 35.2004 65.2832 35.3246 65.388C35.4487 65.4915 35.5933 65.5401 35.7582 65.5333ZM37.9403 65.9387L37.8628 65.4262L39.0211 63.8873C39.1314 63.7361 39.2221 63.6031 39.2934 63.4878C39.3647 63.3729 39.4148 63.2645 39.4437 63.1619C39.4726 63.0597 39.4788 62.9544 39.4624 62.8464C39.4437 62.7224 39.3997 62.6208 39.3303 62.5413C39.2606 62.4605 39.1731 62.4033 39.0676 62.3697C38.9621 62.3361 38.8468 62.3289 38.7219 62.3479C38.5931 62.367 38.4843 62.411 38.3955 62.4791C38.3065 62.5463 38.2425 62.6321 38.2036 62.737C38.166 62.8418 38.1573 62.9612 38.1775 63.0951L37.5024 63.1973C37.4648 62.9485 37.4888 62.7238 37.5746 62.5232C37.6603 62.3225 37.795 62.1564 37.9787 62.0256C38.1636 61.8949 38.3856 61.8096 38.6444 61.7705C38.9071 61.731 39.1453 61.7451 39.3591 61.8132C39.5728 61.8813 39.7475 61.9925 39.883 62.1468C40.0197 62.3007 40.1047 62.4877 40.1379 62.707C40.16 62.8536 40.1537 63.0021 40.1191 63.1519C40.0843 63.3021 40.0093 63.4737 39.8937 63.6671C39.7795 63.8605 39.614 64.0988 39.3972 64.3821L38.8259 65.1706L38.8299 65.1974L40.5361 64.9395L40.6257 65.5324L37.9403 65.9387ZM41.276 65.3957L41.1436 64.8946L42.1288 63.2395C42.222 63.0774 42.2979 62.9353 42.3563 62.8132C42.4147 62.6911 42.4528 62.5776 42.4704 62.4728C42.4881 62.3684 42.4829 62.263 42.4549 62.1568C42.423 62.0361 42.3682 61.9398 42.2906 61.8681C42.2127 61.7955 42.1194 61.7483 42.0109 61.726C41.9024 61.7042 41.787 61.7092 41.6648 61.7415C41.5389 61.7746 41.4355 61.83 41.3546 61.9076C41.2733 61.9839 41.219 62.076 41.1917 62.1845C41.1656 62.293 41.1699 62.4124 41.2045 62.5436L40.5443 62.7179C40.48 62.4746 40.4797 62.249 40.5432 62.0397C40.6067 61.8309 40.7227 61.6516 40.8912 61.5018C41.0609 61.3515 41.2723 61.243 41.5254 61.1758C41.7823 61.1082 42.0206 61.0964 42.2405 61.1413C42.4604 61.1858 42.646 61.2775 42.7974 61.416C42.95 61.5544 43.0546 61.731 43.1113 61.9453C43.1493 62.0887 43.1591 62.2372 43.1408 62.3897C43.1225 62.5427 43.0664 62.7215 42.9725 62.9267C42.8798 63.131 42.741 63.3857 42.5562 63.6907L42.0734 64.5369L42.0803 64.5627L43.7486 64.122L43.9018 64.7017L41.276 65.3957ZM46.3031 63.8124L45.6036 64.1247L45.2626 59.9384L46.0716 59.5775L48.9619 62.6257L48.2623 62.9381L46.0121 60.4936L45.984 60.5063L46.3031 63.8124ZM45.693 62.3838L47.6009 61.5322L47.8356 62.0588L45.9281 62.9104L45.693 62.3838ZM50.5643 61.6811L49.4135 62.3724L47.3731 58.9765L48.547 58.271C48.8842 58.0686 49.2147 57.9628 49.5384 57.9533C49.8625 57.9419 50.1662 58.0236 50.4485 58.1984C50.7314 58.3732 50.9783 58.6369 51.1903 58.9896C51.4027 59.3433 51.5199 59.6869 51.5407 60.0201C51.5634 60.3524 51.4922 60.6611 51.3274 60.9452C51.1635 61.2285 50.9093 61.4736 50.5643 61.6811ZM49.7091 61.4705L50.2148 61.1668C50.4513 61.0247 50.6229 60.8631 50.7291 60.6815C50.8344 60.4995 50.8753 60.2979 50.8512 60.0777C50.8267 59.8562 50.7363 59.6161 50.5802 59.356C50.424 59.0963 50.2547 58.9047 50.0722 58.7813C49.8888 58.6564 49.6936 58.5983 49.4866 58.607C49.2801 58.6138 49.0622 58.6864 48.832 58.8244L48.3082 59.1394L49.7091 61.4705Z" fill="#17254E"/>
<path d="M53.445 58.1121L53.9657 56.5333L52.706 55.6767H54.2681L54.8223 53.9971L55.3766 55.6767H56.9386L55.6789 56.5333L56.1996 58.1121L54.8223 57.1211L53.445 58.1121Z" fill="#17254E"/>
<path d="M13.9515 58.1121L14.4722 56.5333L13.2125 55.6767H14.7745L15.3288 53.9971L15.8831 55.6767H17.4451L16.1854 56.5333L16.7061 58.1121L15.3288 57.1211L13.9515 58.1121Z" fill="#17254E"/>
<path d="M32.4901 14.2717C31.9884 14.4475 31.2193 14.9529 30.8421 15.3557L30.6224 15.5864L31.1534 15.3227C32.1604 14.8174 33.618 14.5903 34.7898 14.7514C35.3831 14.832 35.3392 14.7588 34.5591 14.3889C33.9146 14.0813 33.1565 14.0373 32.4901 14.2717Z" fill="#17254E"/>
<path d="M33.5159 15.5866C32.0035 15.8027 30.3776 16.6999 28.7186 18.238C28.0338 18.8752 28.0228 18.9704 28.682 18.5713C31.2161 17.0478 34.9991 16.4692 38.4378 17.0845C38.6722 17.1284 38.6685 17.121 38.3133 16.8757C36.7569 15.8064 35.1053 15.3632 33.5159 15.5866Z" fill="#17254E"/>
<path d="M33.4427 17.7325C32.0035 18.0438 30.6083 18.8239 29.1178 20.1532C28.7186 20.5121 28.4 20.8088 28.411 20.8198C28.422 20.8307 28.8175 20.6476 29.2935 20.4132C32.0328 19.0546 35.1419 18.6884 38.6062 19.3072C39.5144 19.4721 39.5108 19.4831 38.7674 18.9887C37.0462 17.8424 35.0833 17.381 33.4427 17.7325Z" fill="#17254E"/>
<path d="M46.8097 18.4062C45.6966 18.538 45.151 18.7541 43.9205 19.5524C42.5436 20.4423 41.8075 20.6987 40.6393 20.7023C40.0863 20.7023 40.0826 20.728 40.5587 21.204C41.4816 22.1305 42.6498 22.2587 43.9864 21.5849C44.5321 21.3066 44.4662 21.2919 44.6383 21.746C45.1143 23.0278 44.7994 24.1191 43.2247 26.635C42.1334 28.3819 41.8697 29.0117 41.8697 29.8577V30.2605L42.0748 29.7478C42.3971 28.9312 42.745 28.4624 44.0011 27.1624C46.5133 24.5512 46.8392 23.7602 46.3998 21.3578C46.1578 20.0432 46.2718 19.4719 46.9236 18.7651C47.2273 18.4355 47.2714 18.3512 47.1211 18.3695C47.0698 18.3769 46.9309 18.3915 46.8097 18.4062Z" fill="#17254E"/>
<path d="M32.7618 19.8457C32.7471 19.8933 32.7984 20.0288 32.879 20.1424C32.9559 20.2559 33.0401 20.4939 33.0584 20.666L33.095 20.9847L32.8021 20.9187C32.641 20.8821 32.4212 20.8199 32.3113 20.7759C31.8682 20.6111 31.5533 20.7576 31.6375 21.0909C31.6888 21.2996 31.8609 21.3838 32.5897 21.5559C33.117 21.6841 33.15 21.7024 33.15 21.8892C33.15 22.1163 33.106 22.1163 32.2052 21.8709C31.6961 21.7317 31.5753 21.7464 31.4617 21.9551C31.2896 22.2737 31.8096 22.5667 32.7984 22.7095C33.1023 22.7571 33.1463 22.7864 33.1866 22.9768C33.3953 23.9217 34.8345 23.8887 34.8345 22.9439C34.8345 22.7205 34.8492 22.7095 35.3289 22.5814C36.2554 22.3396 36.4971 22.1639 36.3653 21.8196C36.2957 21.6328 36.0687 21.6036 35.7354 21.7354C35.6219 21.783 35.3911 21.8636 35.2191 21.9185L34.9078 22.0137V21.8013C34.9078 21.6146 34.9444 21.5779 35.2008 21.5083C35.9844 21.2959 36.2847 21.0725 36.1858 20.7686C36.1199 20.5562 35.8892 20.5342 35.4534 20.699C34.8309 20.9297 34.721 20.7796 35.0945 20.2266C35.2227 20.0398 35.2593 19.9263 35.2081 19.875C35.0396 19.7066 34.688 20.2339 34.688 20.6587C34.688 20.9773 34.677 20.981 34.0289 21.0433C33.4283 21.0982 33.2965 21.0213 33.2965 20.6075C33.2965 20.2266 32.8534 19.593 32.7618 19.8457ZM34.6148 21.8746V22.0943H33.9923C33.3807 22.0943 33.3697 22.0906 33.3697 21.9148C33.3697 21.7427 33.3917 21.7317 33.9007 21.7097C34.1937 21.6951 34.472 21.6768 34.5232 21.6695C34.5782 21.6622 34.6148 21.7391 34.6148 21.8746ZM34.6148 22.8963C34.6148 23.3541 33.9154 23.5994 33.5931 23.2515C33.2745 22.9109 33.3807 22.7938 34.0289 22.7718C34.5636 22.7571 34.6148 22.7681 34.6148 22.8963Z" fill="#17254E"/>
<path d="M19.9964 20.2299C19.9524 20.2482 20.1026 20.4532 20.3333 20.684C20.9412 21.2992 21.0547 21.6618 21.139 23.2292C21.2745 25.7927 21.6077 26.3347 24.4092 28.5246C25.8337 29.6379 26.2329 30.0408 26.6687 30.7805C26.991 31.3335 27.0129 31.3445 26.947 30.938C26.8225 30.125 26.416 29.4585 25.0537 27.8435C23.219 25.6681 22.7283 24.6244 22.9224 23.3317C23.003 22.797 23.0249 22.786 23.5999 22.9838C25.0391 23.4782 26.3648 23.0241 27.0569 21.7936L27.229 21.4897L27.0203 21.5336C25.8631 21.7936 24.8157 21.6215 23.3399 20.9293C22.0435 20.3214 20.4835 19.9955 19.9964 20.2299Z" fill="#17254E"/>
<path d="M38.5243 20.5192C38.9674 22.3429 38.8942 24.9394 38.3375 27.1843C37.6857 29.7991 37.9347 30.5864 40.3517 33.5857C43.0543 36.9366 43.3948 38.9251 41.5748 40.7745C41.0475 41.3128 41.0511 41.3238 41.6114 40.9137C44.065 39.1156 43.805 37.1746 40.5238 32.7947C38.8868 30.6084 38.777 29.9419 39.4911 26.5251C40.0404 23.8994 40.0221 22.841 39.4069 21.6105C39.1432 21.0868 38.4547 20.2336 38.5243 20.5192Z" fill="#17254E"/>
<path d="M40.7189 22.6911C41.367 23.896 41.7186 25.229 41.7186 26.4594C41.7186 26.8439 41.7479 27.1479 41.7882 27.1479C42.0043 27.1479 43.1688 25.6354 43.5789 24.8225C44.0403 23.8996 44.3333 22.215 44.0074 22.3505C42.678 22.9108 41.9603 22.8595 40.4515 22.1088C40.4186 22.0905 40.5394 22.3542 40.7189 22.6911Z" fill="#17254E"/>
<path d="M27.7073 22.9731C27.3814 26.3826 27.7292 28.9534 28.7986 31.0335C29.6336 32.6595 31.0435 33.7581 34.2954 35.3219C37.8256 37.0174 38.4409 37.3653 39.155 38.0612C41.9125 40.7492 36.2399 44.4406 32.4131 42.4484C29.7068 41.0421 29.564 37.8963 32.1787 37.2408C32.728 37.1016 32.6987 37.0614 31.948 36.8856C29.6043 36.3472 28.0808 37.5155 28.2676 39.7091C28.469 42.1078 30.5674 43.4774 34.0317 43.4811C38.7082 43.4848 41.9748 41.0348 40.997 38.2589C40.5612 37.0211 40.1254 36.7208 35.5295 34.5125C32.2153 32.9195 30.5124 31.3887 29.3443 28.9497C28.6302 27.4556 28.0772 25.456 27.938 23.8557C27.8208 22.4934 27.7696 22.303 27.7073 22.9731Z" fill="#17254E"/>
<path d="M26.7763 23.1526C25.8388 23.7678 24.883 23.9766 24.0041 23.7496C23.7514 23.6873 23.5243 23.6323 23.4987 23.6323C23.4145 23.6323 23.5537 24.5772 23.6965 24.9654C23.9931 25.7527 24.8317 26.7452 26.0988 27.7925L26.4797 28.1112L26.4394 27.4996C26.4174 27.1663 26.3881 26.8331 26.3771 26.7635C26.2563 26.1446 26.6408 24.2073 27.0693 23.2844C27.1864 23.0318 27.2743 22.8304 27.267 22.834C27.2597 22.834 27.0399 22.9805 26.7763 23.1526Z" fill="#17254E"/>
<path d="M36.1397 23.2918C35.2315 23.669 34.4808 24.5699 34.6492 25.0935C34.7554 25.4305 35.1546 25.0826 35.4659 24.3831C35.8467 23.5225 36.6121 23.105 37.5386 23.2478C38.0916 23.3321 38.1941 23.3101 37.7876 23.2002C37.3043 23.0647 36.5975 23.105 36.1397 23.2918Z" fill="#17254E"/>
<path d="M30.4038 23.2624C30.2243 23.31 30.2646 23.3247 30.6455 23.332C31.4328 23.3466 32.0224 23.7348 32.3703 24.4673C32.6523 25.0715 33.0039 25.4414 33.1284 25.2729C33.6997 24.4929 31.5939 22.9401 30.4038 23.2624Z" fill="#17254E"/>
<path d="M33.9125 23.9582C33.843 24.1377 33.9162 24.3245 34.0627 24.3537C34.2568 24.3904 34.4143 24.167 34.3191 23.9875C34.2312 23.8264 33.9675 23.8081 33.9125 23.9582Z" fill="#17254E"/>
<path d="M36.4049 24.5039C35.8006 24.7786 35.493 25.3425 35.493 26.1775V26.6353H36.1046C37.2068 26.6353 37.9722 26.0603 38.3055 24.98C38.3677 24.7749 38.0345 24.7127 37.3607 24.8078C36.599 24.9177 36.09 25.2473 35.7677 25.8479L35.6395 26.0823V25.8808C35.6395 24.958 36.6868 24.2695 37.606 24.5918C37.943 24.709 38.0638 24.6211 37.7489 24.4819C37.3863 24.3244 36.7747 24.3354 36.4049 24.5039ZM38.126 24.9946C38.3275 25.1997 37.3533 26.2654 36.826 26.4119C36.002 26.6426 35.5956 26.4924 35.8263 26.042L35.9398 25.8259L36.1302 25.9724C36.7308 26.4448 37.7928 25.7161 37.3973 25.0971C37.2838 24.9177 37.9503 24.8225 38.126 24.9946Z" fill="#17254E"/>
<path d="M30.2946 24.5183C30.0309 24.5988 29.8295 24.727 29.8807 24.782C29.8991 24.8003 30.0821 24.7563 30.2946 24.6867C31.1845 24.3974 32.2098 25.0749 32.1952 25.9428L32.1915 26.1589L32.0524 25.8916C31.7191 25.2617 30.9464 24.8772 30.0199 24.8772C29.4779 24.8772 29.4669 24.8881 29.6464 25.3642C29.943 26.1626 30.6498 26.6826 31.547 26.7632C32.2867 26.8291 32.3453 26.7888 32.3453 26.2029C32.3453 25.0127 31.3529 24.1997 30.2946 24.5183ZM30.4227 25.28C30.1957 26.0124 31.1661 26.5727 31.7337 26.0417L31.9022 25.8806L32.0157 26.1443C32.2172 26.6313 32.1915 26.6606 31.6239 26.613C30.7743 26.5434 30.2286 26.1992 29.8881 25.5254C29.6427 25.0456 29.6537 25.0236 30.1041 25.0236H30.4996L30.4227 25.28Z" fill="#17254E"/>
<path d="M33.6243 25.6428C33.2288 26.0383 33.5071 26.7085 34.0674 26.7085C34.2578 26.7085 34.3787 26.6535 34.5105 26.5144C35.0415 25.9431 34.1772 25.0935 33.6243 25.6428Z" fill="#17254E"/>
<path d="M33.8822 27.0747C33.5563 27.4007 33.8017 27.9537 34.2741 27.9537C34.5853 27.9537 34.7611 27.7632 34.7611 27.43C34.7611 26.9649 34.2118 26.7452 33.8822 27.0747Z" fill="#17254E"/>
<path d="M34.1767 28.3195C33.8874 28.6088 34.0778 29.052 34.4879 29.052C34.8615 29.052 35.0299 28.5832 34.7479 28.3232C34.5465 28.1328 34.3634 28.1328 34.1767 28.3195Z" fill="#17254E"/>
<path d="M34.4223 29.7518C34.2941 30.2646 34.9057 31.7587 35.5063 32.3922C36.0776 33.0001 36.6232 33.359 38.2602 34.2087C40.256 35.245 40.6332 35.5087 41.1898 36.2595C41.5121 36.6989 41.578 36.6 41.3107 36.0763C40.9225 35.3109 40.2633 34.758 38.6044 33.8095C36.1874 32.4288 35.3232 31.6086 34.8252 30.2169C34.5834 29.5358 34.4992 29.4405 34.4223 29.7518Z" fill="#17254E"/>
<path d="M21.6884 30.9894C20.0588 31.7988 19.0444 34.1059 19.6962 35.5232C20.3957 37.0503 22.2011 37.7278 23.6513 37.0136C25.0831 36.3068 25.9803 34.7139 25.5775 33.5969C25.3724 33.0256 25.1637 33.0952 24.5778 33.9301C23.9223 34.8677 23.8856 34.831 23.7831 33.0805C23.7099 31.8208 23.6 31.4509 23.1972 31.07C22.8712 30.7624 22.2157 30.7257 21.6884 30.9894Z" fill="#17254E"/>
<path d="M46.5078 31.2935C44.7464 32.2274 44.0433 33.5384 44.8343 34.4137C45.131 34.7433 45.109 34.8532 44.6658 35.1827C43.721 35.8932 43.5086 36.3253 43.8346 36.8637C44.5011 37.9513 46.526 38.204 48.1484 37.3984C49.5656 36.6989 50.8035 34.9703 50.7082 33.8314C50.6496 33.1063 50.4921 33.1319 50.0672 33.9486C49.3604 35.3073 48.3204 36.1422 48.0898 35.5343C47.9945 35.2816 48.0531 35.1571 48.5002 34.6847C49.2692 33.8681 49.1407 33.3883 47.7603 31.8392C47.0353 31.0262 47.0208 31.0225 46.5078 31.2935Z" fill="#17254E"/>
<path d="M26.4248 35.5342C26.249 35.6331 25.7546 36.0469 25.3261 36.4533C23.4109 38.2588 22.4441 38.4529 20.0015 37.5117C19.5474 37.3359 21.1038 38.5005 21.6933 38.7751C23.0703 39.4197 24.0957 38.929 25.6411 36.8892C26.3808 35.915 26.6701 35.5964 26.9594 35.4353C27.0986 35.3584 27.0949 35.3547 26.9228 35.3547C26.8239 35.3547 26.5969 35.4353 26.4248 35.5342Z" fill="#17254E"/>
<path d="M46.9009 38.3577C46.531 38.42 45.8755 38.6177 45.6408 38.7422C45.52 38.8008 45.6081 38.8375 46.117 38.94C51.0754 39.9507 51.4745 45.2389 46.8238 48.3223C41.7665 51.6697 37.2804 51.5598 34.7426 48.0186C34.402 47.546 34.7902 49.9923 35.1528 50.6111C35.3945 51.0214 35.5849 51.1276 36.3393 51.2706C42.1437 52.3656 48.7612 49.813 50.6946 45.7298C52.4196 42.0895 50.2111 37.7974 46.9009 38.3577Z" fill="#17254E"/>
<path d="M19.6068 39.1667C17.8636 43.0486 20.4454 48.3076 25.7298 51.6291C28.3811 53.2951 32.0469 54.2988 33.0137 53.6211C33.7351 53.1158 34.0721 51.9292 33.9951 50.1456C33.9365 48.7725 33.6619 47.2163 33.6619 48.2636C33.6619 48.7652 33.4092 49.9663 33.1931 50.512C32.1311 53.1526 29.3589 52.8743 25.4039 49.7321C21.61 46.7179 20.1598 43.261 21.4195 40.2581L21.6283 39.76L21.339 39.7161C20.9105 39.6465 20.482 39.4011 20.1305 39.0312L19.8192 38.698L19.6068 39.1667Z" fill="#17254E"/>
<path d="M25.792 40.2582C26.1216 42.4665 27.407 44.5539 29.1648 45.7219C34.343 49.1683 42.9013 46.4142 43.8827 40.9906C44.0329 40.1703 44.0146 40.163 43.6373 40.8844C40.0302 47.7947 28.9085 47.5677 25.9934 40.5255C25.7701 39.9909 25.7481 39.9616 25.792 40.2582Z" fill="#17254E"/>
<path d="M34.551 41.0859C34.4375 41.2251 34.5181 41.2837 34.8147 41.2837C35.0125 41.2837 35.0601 41.2581 35.0381 41.1555C35.0088 40.9944 34.6682 40.9468 34.551 41.0859Z" fill="#17254E"/>
<path d="M34.9288 51.5158C36.3497 53.603 35.5953 55.555 33.7386 54.5922C33.2882 54.3575 33.2809 54.4051 33.6874 54.9544C34.8592 56.5437 36.4449 56.7452 37.1371 55.3902C37.8218 54.0538 36.8917 52.2557 34.9581 51.1717L34.5296 50.9333L34.9288 51.5158Z" fill="#17254E"/>
<path d="M37.3239 52.3107C37.3239 52.3288 37.4411 52.4936 37.5839 52.6802C37.9391 53.1455 38.0453 53.3688 38.1955 53.9621L38.3236 54.4674L38.7704 54.244C39.4332 53.9145 39.8434 53.3761 39.9972 52.6475C40.0448 52.4278 40.0375 52.4092 39.913 52.4755C39.4149 52.7428 38.309 52.7133 37.6352 52.4169C37.4631 52.3397 37.3239 52.2921 37.3239 52.3107Z" fill="#17254E"/>
<path d="M35.6349 60.1481C49.4238 60.1481 60.602 48.9699 60.602 35.181C60.602 21.392 49.4238 10.2139 35.6349 10.2139C21.8459 10.2139 10.6678 21.392 10.6678 35.181C10.6678 48.9699 21.8459 60.1481 35.6349 60.1481Z" stroke="#17254E"/>
<path d="M35.1809 68.7731C53.7333 68.7731 68.773 53.7334 68.773 35.181C68.773 16.6286 53.7333 1.58887 35.1809 1.58887C16.6285 1.58887 1.58881 16.6286 1.58881 35.181C1.58881 53.7334 16.6285 68.7731 35.1809 68.7731Z" stroke="#17254E"/>
</g>
<path d="M84.709 31L81.3223 19H83.6602L85.8223 27.8184H85.9336L88.2422 19H90.3691L92.6836 27.8242H92.7891L94.9512 19H97.2891L93.9023 31H91.7578L89.3555 22.5801H89.2617L86.8535 31H84.709ZM98.7026 31V22H100.824V31H98.7026ZM99.769 20.7227C99.4331 20.7227 99.144 20.6113 98.9019 20.3887C98.6597 20.1621 98.5386 19.8906 98.5386 19.5742C98.5386 19.2539 98.6597 18.9824 98.9019 18.7598C99.144 18.5332 99.4331 18.4199 99.769 18.4199C100.109 18.4199 100.398 18.5332 100.636 18.7598C100.878 18.9824 101 19.2539 101 19.5742C101 19.8906 100.878 20.1621 100.636 20.3887C100.398 20.6113 100.109 20.7227 99.769 20.7227ZM110.118 24.3789L108.185 24.5898C108.13 24.3945 108.034 24.2109 107.897 24.0391C107.765 23.8672 107.585 23.7285 107.358 23.623C107.132 23.5176 106.854 23.4648 106.526 23.4648C106.085 23.4648 105.714 23.5605 105.413 23.752C105.116 23.9434 104.97 24.1914 104.974 24.4961C104.97 24.7578 105.065 24.9707 105.261 25.1348C105.46 25.2988 105.788 25.4336 106.245 25.5391L107.78 25.8672C108.632 26.0508 109.265 26.3418 109.679 26.7402C110.097 27.1387 110.308 27.6602 110.312 28.3047C110.308 28.8711 110.142 29.3711 109.813 29.8047C109.489 30.2344 109.038 30.5703 108.46 30.8125C107.882 31.0547 107.218 31.1758 106.468 31.1758C105.366 31.1758 104.479 30.9453 103.808 30.4844C103.136 30.0195 102.735 29.373 102.606 28.5449L104.675 28.3457C104.769 28.752 104.968 29.0586 105.272 29.2656C105.577 29.4727 105.974 29.5762 106.462 29.5762C106.966 29.5762 107.37 29.4727 107.675 29.2656C107.983 29.0586 108.138 28.8027 108.138 28.498C108.138 28.2402 108.038 28.0273 107.839 27.8594C107.644 27.6914 107.339 27.5625 106.925 27.4727L105.39 27.1504C104.526 26.9707 103.888 26.668 103.474 26.2422C103.06 25.8125 102.854 25.2695 102.858 24.6133C102.854 24.0586 103.005 23.5781 103.31 23.1719C103.618 22.7617 104.046 22.4453 104.593 22.2227C105.144 21.9961 105.778 21.8828 106.497 21.8828C107.552 21.8828 108.382 22.1074 108.987 22.5566C109.597 23.0059 109.974 23.6133 110.118 24.3789ZM115.4 31.1582C114.693 31.1582 114.061 30.9766 113.502 30.6133C112.943 30.25 112.502 29.7227 112.178 29.0312C111.854 28.3398 111.691 27.5 111.691 26.5117C111.691 25.5117 111.855 24.668 112.184 23.9805C112.516 23.2891 112.963 22.7676 113.525 22.416C114.088 22.0605 114.715 21.8828 115.406 21.8828C115.934 21.8828 116.367 21.9727 116.707 22.1523C117.047 22.3281 117.316 22.541 117.516 22.791C117.715 23.0371 117.869 23.2695 117.979 23.4883H118.066V19H120.193V31H118.107V29.582H117.979C117.869 29.8008 117.711 30.0332 117.504 30.2793C117.297 30.5215 117.023 30.7285 116.684 30.9004C116.344 31.0723 115.916 31.1582 115.4 31.1582ZM115.992 29.418C116.441 29.418 116.824 29.2969 117.141 29.0547C117.457 28.8086 117.697 28.4668 117.861 28.0293C118.025 27.5918 118.107 27.082 118.107 26.5C118.107 25.918 118.025 25.4121 117.861 24.9824C117.701 24.5527 117.463 24.2187 117.146 23.9805C116.834 23.7422 116.449 23.623 115.992 23.623C115.52 23.623 115.125 23.7461 114.809 23.9922C114.492 24.2383 114.254 24.5781 114.094 25.0117C113.934 25.4453 113.854 25.9414 113.854 26.5C113.854 27.0625 113.934 27.5645 114.094 28.0059C114.258 28.4434 114.498 28.7891 114.814 29.043C115.135 29.293 115.527 29.418 115.992 29.418ZM126.379 31.1758C125.5 31.1758 124.739 30.9824 124.094 30.5957C123.45 30.209 122.95 29.668 122.594 28.9727C122.243 28.2773 122.067 27.4648 122.067 26.5352C122.067 25.6055 122.243 24.791 122.594 24.0918C122.95 23.3926 123.45 22.8496 124.094 22.4629C124.739 22.0762 125.5 21.8828 126.379 21.8828C127.258 21.8828 128.02 22.0762 128.665 22.4629C129.309 22.8496 129.807 23.3926 130.159 24.0918C130.514 24.791 130.692 25.6055 130.692 26.5352C130.692 27.4648 130.514 28.2773 130.159 28.9727C129.807 29.668 129.309 30.209 128.665 30.5957C128.02 30.9824 127.258 31.1758 126.379 31.1758ZM126.391 29.4766C126.868 29.4766 127.266 29.3457 127.586 29.084C127.907 28.8184 128.145 28.4629 128.301 28.0176C128.461 27.5723 128.542 27.0762 128.542 26.5293C128.542 25.9785 128.461 25.4805 128.301 25.0352C128.145 24.5859 127.907 24.2285 127.586 23.9629C127.266 23.6973 126.868 23.5645 126.391 23.5645C125.903 23.5645 125.497 23.6973 125.172 23.9629C124.852 24.2285 124.612 24.5859 124.452 25.0352C124.295 25.4805 124.217 25.9785 124.217 26.5293C124.217 27.0762 124.295 27.5723 124.452 28.0176C124.612 28.4629 124.852 28.8184 125.172 29.084C125.497 29.3457 125.903 29.4766 126.391 29.4766ZM132.492 31V22H134.52V23.5293H134.625C134.813 23.0137 135.123 22.6113 135.557 22.3223C135.99 22.0293 136.508 21.8828 137.109 21.8828C137.719 21.8828 138.232 22.0313 138.65 22.3281C139.072 22.6211 139.369 23.0215 139.541 23.5293H139.635C139.834 23.0293 140.17 22.6309 140.643 22.334C141.119 22.0332 141.684 21.8828 142.336 21.8828C143.164 21.8828 143.84 22.1445 144.363 22.668C144.887 23.1914 145.148 23.9551 145.148 24.959V31H143.021V25.2871C143.021 24.7285 142.873 24.3203 142.576 24.0625C142.279 23.8008 141.916 23.6699 141.486 23.6699C140.975 23.6699 140.574 23.8301 140.285 24.1504C140 24.4668 139.857 24.8789 139.857 25.3867V31H137.777V25.1992C137.777 24.7344 137.637 24.3633 137.355 24.0859C137.078 23.8086 136.715 23.6699 136.266 23.6699C135.961 23.6699 135.684 23.748 135.434 23.9043C135.184 24.0566 134.984 24.2734 134.836 24.5547C134.688 24.832 134.613 25.1562 134.613 25.5273V31H132.492ZM153.028 31H150.708L154.932 19H157.616L161.846 31H159.526L156.321 21.4609H156.227L153.028 31ZM153.104 26.2949H159.432V28.041H153.104V26.2949ZM166.985 31.1758C166.086 31.1758 165.315 30.9785 164.67 30.584C164.03 30.1895 163.536 29.6445 163.188 28.9492C162.844 28.25 162.672 27.4453 162.672 26.5352C162.672 25.6211 162.848 24.8145 163.2 24.1152C163.551 23.4121 164.047 22.8652 164.688 22.4746C165.333 22.0801 166.094 21.8828 166.973 21.8828C167.704 21.8828 168.35 22.0176 168.913 22.2871C169.479 22.5527 169.93 22.9297 170.266 23.418C170.602 23.9023 170.793 24.4687 170.84 25.1172H168.813C168.731 24.6836 168.536 24.3223 168.227 24.0332C167.922 23.7402 167.514 23.5937 167.002 23.5937C166.569 23.5937 166.188 23.7109 165.86 23.9453C165.532 24.1758 165.276 24.5078 165.092 24.9414C164.913 25.375 164.823 25.8945 164.823 26.5C164.823 27.1133 164.913 27.6406 165.092 28.082C165.272 28.5195 165.524 28.8574 165.848 29.0957C166.176 29.3301 166.561 29.4473 167.002 29.4473C167.315 29.4473 167.594 29.3887 167.84 29.2715C168.09 29.1504 168.299 28.9766 168.467 28.75C168.635 28.5234 168.75 28.248 168.813 27.9238H170.84C170.79 28.5605 170.602 29.125 170.278 29.6172C169.954 30.1055 169.512 30.4883 168.954 30.7656C168.395 31.0391 167.739 31.1758 166.985 31.1758ZM175.172 31.1816C174.602 31.1816 174.088 31.0801 173.631 30.877C173.178 30.6699 172.818 30.3652 172.553 29.9629C172.291 29.5605 172.16 29.0645 172.16 28.4746C172.16 27.9668 172.254 27.5469 172.441 27.2148C172.629 26.8828 172.885 26.6172 173.209 26.418C173.533 26.2187 173.898 26.0684 174.305 25.9668C174.715 25.8613 175.139 25.7852 175.576 25.7383C176.104 25.6836 176.531 25.6348 176.859 25.5918C177.188 25.5449 177.426 25.4746 177.574 25.3809C177.727 25.2832 177.803 25.1328 177.803 24.9297V24.8945C177.803 24.4531 177.672 24.1113 177.41 23.8691C177.148 23.627 176.771 23.5059 176.279 23.5059C175.76 23.5059 175.348 23.6191 175.043 23.8457C174.742 24.0723 174.539 24.3398 174.434 24.6484L172.453 24.3672C172.609 23.8203 172.867 23.3633 173.227 22.9961C173.586 22.625 174.025 22.3477 174.545 22.1641C175.064 21.9766 175.639 21.8828 176.268 21.8828C176.701 21.8828 177.133 21.9336 177.563 22.0352C177.992 22.1367 178.385 22.3047 178.74 22.5391C179.096 22.7695 179.381 23.084 179.596 23.4824C179.814 23.8809 179.924 24.3789 179.924 24.9766V31H177.885V29.7637H177.814C177.686 30.0137 177.504 30.248 177.27 30.4668C177.039 30.6816 176.748 30.8555 176.396 30.9883C176.049 31.1172 175.641 31.1816 175.172 31.1816ZM175.723 29.623C176.148 29.623 176.518 29.5391 176.83 29.3711C177.143 29.1992 177.383 28.9727 177.551 28.6914C177.723 28.4102 177.809 28.1035 177.809 27.7715V26.7109C177.742 26.7656 177.629 26.8164 177.469 26.8633C177.313 26.9102 177.137 26.9512 176.941 26.9863C176.746 27.0215 176.553 27.0527 176.361 27.0801C176.17 27.1074 176.004 27.1309 175.863 27.1504C175.547 27.1934 175.264 27.2637 175.014 27.3613C174.764 27.459 174.566 27.5957 174.422 27.7715C174.277 27.9434 174.205 28.166 174.205 28.4395C174.205 28.8301 174.348 29.125 174.633 29.3242C174.918 29.5234 175.281 29.623 175.723 29.623ZM185.396 31.1582C184.689 31.1582 184.057 30.9766 183.498 30.6133C182.939 30.25 182.498 29.7227 182.174 29.0312C181.85 28.3398 181.688 27.5 181.688 26.5117C181.688 25.5117 181.852 24.668 182.18 23.9805C182.512 23.2891 182.959 22.7676 183.521 22.416C184.084 22.0605 184.711 21.8828 185.402 21.8828C185.93 21.8828 186.363 21.9727 186.703 22.1523C187.043 22.3281 187.313 22.541 187.512 22.791C187.711 23.0371 187.865 23.2695 187.975 23.4883H188.063V19H190.189V31H188.104V29.582H187.975C187.865 29.8008 187.707 30.0332 187.5 30.2793C187.293 30.5215 187.02 30.7285 186.68 30.9004C186.34 31.0723 185.912 31.1582 185.396 31.1582ZM185.988 29.418C186.438 29.418 186.82 29.2969 187.137 29.0547C187.453 28.8086 187.693 28.4668 187.857 28.0293C188.021 27.5918 188.104 27.082 188.104 26.5C188.104 25.918 188.021 25.4121 187.857 24.9824C187.697 24.5527 187.459 24.2187 187.143 23.9805C186.83 23.7422 186.445 23.623 185.988 23.623C185.516 23.623 185.121 23.7461 184.805 23.9922C184.488 24.2383 184.25 24.5781 184.09 25.0117C183.93 25.4453 183.85 25.9414 183.85 26.5C183.85 27.0625 183.93 27.5645 184.09 28.0059C184.254 28.4434 184.494 28.7891 184.811 29.043C185.131 29.293 185.523 29.418 185.988 29.418ZM196.434 31.1758C195.532 31.1758 194.752 30.9883 194.096 30.6133C193.444 30.2344 192.942 29.6992 192.59 29.0078C192.239 28.3125 192.063 27.4941 192.063 26.5527C192.063 25.627 192.239 24.8145 192.59 24.1152C192.946 23.4121 193.442 22.8652 194.079 22.4746C194.715 22.0801 195.463 21.8828 196.323 21.8828C196.877 21.8828 197.401 21.9727 197.893 22.1523C198.389 22.3281 198.827 22.6016 199.206 22.9727C199.588 23.3437 199.889 23.8164 200.108 24.3906C200.327 24.9609 200.436 25.6406 200.436 26.4297V27.0801H193.059V25.6504H198.403C198.399 25.2441 198.311 24.8828 198.139 24.5664C197.967 24.2461 197.727 23.9941 197.418 23.8105C197.114 23.627 196.758 23.5352 196.352 23.5352C195.918 23.5352 195.538 23.6406 195.209 23.8516C194.881 24.0586 194.625 24.332 194.442 24.6719C194.262 25.0078 194.17 25.377 194.167 25.7793V27.0273C194.167 27.5508 194.262 28 194.454 28.375C194.645 28.7461 194.913 29.0312 195.256 29.2305C195.6 29.4258 196.002 29.5234 196.463 29.5234C196.772 29.5234 197.051 29.4805 197.301 29.3945C197.551 29.3047 197.768 29.1738 197.952 29.002C198.135 28.8301 198.274 28.6172 198.368 28.3633L200.348 28.5859C200.223 29.1094 199.985 29.5664 199.633 29.957C199.286 30.3437 198.84 30.6445 198.297 30.8594C197.754 31.0703 197.133 31.1758 196.434 31.1758ZM202.23 31V22H204.258V23.5293H204.363C204.551 23.0137 204.861 22.6113 205.295 22.3223C205.729 22.0293 206.246 21.8828 206.848 21.8828C207.457 21.8828 207.971 22.0313 208.389 22.3281C208.811 22.6211 209.107 23.0215 209.279 23.5293H209.373C209.572 23.0293 209.908 22.6309 210.381 22.334C210.857 22.0332 211.422 21.8828 212.074 21.8828C212.902 21.8828 213.578 22.1445 214.102 22.668C214.625 23.1914 214.887 23.9551 214.887 24.959V31H212.76V25.2871C212.76 24.7285 212.611 24.3203 212.314 24.0625C212.018 23.8008 211.654 23.6699 211.225 23.6699C210.713 23.6699 210.313 23.8301 210.023 24.1504C209.738 24.4668 209.596 24.8789 209.596 25.3867V31H207.516V25.1992C207.516 24.7344 207.375 24.3633 207.094 24.0859C206.816 23.8086 206.453 23.6699 206.004 23.6699C205.699 23.6699 205.422 23.748 205.172 23.9043C204.922 24.0566 204.723 24.2734 204.574 24.5547C204.426 24.832 204.352 25.1562 204.352 25.5273V31H202.23ZM218.035 34.375C217.746 34.375 217.478 34.3516 217.232 34.3047C216.99 34.2617 216.796 34.2109 216.652 34.1523L217.144 32.5C217.453 32.5898 217.728 32.6328 217.97 32.6289C218.212 32.625 218.425 32.5488 218.609 32.4004C218.796 32.2559 218.955 32.0137 219.083 31.6738L219.265 31.1875L216.001 22H218.251L220.326 28.7969H220.419L222.5 22H224.755L221.152 32.0898C220.984 32.5664 220.761 32.9746 220.484 33.3145C220.207 33.6582 219.867 33.9199 219.464 34.0996C219.066 34.2832 218.589 34.375 218.035 34.375ZM85.5341 50.1705C84.7386 50.1705 84.0549 50.0265 83.483 49.7386C82.911 49.4508 82.4697 49.0625 82.1591 48.5739C81.8523 48.0814 81.6989 47.5265 81.6989 46.9091C81.6989 46.4432 81.7936 46.0303 81.983 45.6705C82.1761 45.3106 82.4413 44.9773 82.7784 44.6705C83.1193 44.3636 83.5133 44.0587 83.9602 43.7557L86.0227 42.3523C86.3258 42.1553 86.5549 41.947 86.7102 41.7273C86.8693 41.5076 86.9489 41.25 86.9489 40.9545C86.9489 40.7045 86.8428 40.4678 86.6307 40.2443C86.4223 40.0208 86.1345 39.9091 85.767 39.9091C85.5208 39.9091 85.303 39.9678 85.1136 40.0852C84.928 40.1989 84.7822 40.3485 84.6761 40.5341C84.5739 40.7197 84.5227 40.9167 84.5227 41.125C84.5227 41.3788 84.5928 41.6364 84.733 41.8977C84.8769 42.1591 85.0625 42.4299 85.2898 42.7102C85.5208 42.9905 85.767 43.2879 86.0284 43.6023L91.4886 50H89.2614L84.7273 44.8068C84.3902 44.4129 84.0644 44.0246 83.75 43.642C83.4394 43.2595 83.1837 42.8617 82.983 42.4489C82.786 42.0322 82.6875 41.5814 82.6875 41.0966C82.6875 40.5473 82.8144 40.0568 83.0682 39.625C83.322 39.1894 83.6761 38.8466 84.1307 38.5966C84.589 38.3466 85.125 38.2216 85.7386 38.2216C86.3523 38.2216 86.8788 38.3428 87.3182 38.5852C87.7576 38.8277 88.0966 39.1496 88.3352 39.5511C88.5739 39.9527 88.6932 40.3902 88.6932 40.8636C88.6932 41.4129 88.5568 41.9053 88.2841 42.3409C88.0114 42.7727 87.6326 43.1648 87.1477 43.517L84.7955 45.2386C84.4091 45.5189 84.1326 45.803 83.9659 46.0909C83.7992 46.375 83.7159 46.6174 83.7159 46.8182C83.7159 47.125 83.7936 47.4034 83.9489 47.6534C84.1042 47.9034 84.322 48.1042 84.6023 48.2557C84.8864 48.4034 85.2178 48.4773 85.5966 48.4773C86.0133 48.4773 86.4242 48.3845 86.8295 48.1989C87.2348 48.0095 87.6042 47.7405 87.9375 47.392C88.2708 47.0436 88.536 46.6269 88.733 46.142C88.9299 45.6534 89.0284 45.1117 89.0284 44.517H90.7955C90.7955 45.2519 90.714 45.892 90.5511 46.4375C90.3883 46.9792 90.178 47.4375 89.9205 47.8125C89.6629 48.1837 89.3902 48.4811 89.1023 48.7045C89.0114 48.7689 88.9242 48.8333 88.8409 48.8977C88.7576 48.9621 88.6705 49.0265 88.5795 49.0909C88.1705 49.4621 87.6913 49.7348 87.142 49.9091C86.5966 50.0833 86.0606 50.1705 85.5341 50.1705ZM96.7259 50V38.3636H101.089C101.983 38.3636 102.733 38.5189 103.339 38.8295C103.949 39.1402 104.41 39.5758 104.72 40.1364C105.035 40.6932 105.192 41.3428 105.192 42.0852C105.192 42.8314 105.033 43.4792 104.714 44.0284C104.4 44.5739 103.936 44.9962 103.322 45.2955C102.709 45.5909 101.955 45.7386 101.061 45.7386H97.9531V43.9886H100.777C101.3 43.9886 101.728 43.9167 102.061 43.7727C102.394 43.625 102.641 43.411 102.8 43.1307C102.963 42.8466 103.044 42.4981 103.044 42.0852C103.044 41.6723 102.963 41.3201 102.8 41.0284C102.637 40.733 102.389 40.5095 102.055 40.358C101.722 40.2027 101.292 40.125 100.766 40.125H98.8338V50H96.7259ZM102.737 44.7273L105.618 50H103.266L100.436 44.7273H102.737ZM110.78 50.1705C109.905 50.1705 109.149 49.9886 108.513 49.625C107.88 49.2576 107.393 48.7386 107.053 48.0682C106.712 47.3939 106.541 46.6004 106.541 45.6875C106.541 44.7898 106.712 44.0019 107.053 43.3239C107.397 42.642 107.878 42.1117 108.496 41.733C109.113 41.3504 109.839 41.1591 110.672 41.1591C111.21 41.1591 111.717 41.2462 112.195 41.4205C112.676 41.5909 113.1 41.8561 113.467 42.2159C113.839 42.5758 114.13 43.0341 114.342 43.5909C114.554 44.1439 114.661 44.803 114.661 45.5682V46.1989H107.507V44.8125H112.689C112.685 44.4186 112.6 44.0682 112.433 43.7614C112.267 43.4508 112.034 43.2064 111.734 43.0284C111.439 42.8504 111.094 42.7614 110.7 42.7614C110.28 42.7614 109.911 42.8636 109.592 43.0682C109.274 43.2689 109.026 43.5341 108.848 43.8636C108.674 44.1894 108.585 44.5473 108.581 44.9375V46.1477C108.581 46.6553 108.674 47.0909 108.859 47.4545C109.045 47.8144 109.304 48.0909 109.638 48.2841C109.971 48.4735 110.361 48.5682 110.808 48.5682C111.107 48.5682 111.378 48.5265 111.621 48.4432C111.863 48.3561 112.073 48.2292 112.251 48.0625C112.429 47.8958 112.564 47.6894 112.655 47.4432L114.575 47.6591C114.454 48.1667 114.223 48.6098 113.882 48.9886C113.545 49.3636 113.113 49.6553 112.587 49.8636C112.06 50.0682 111.458 50.1705 110.78 50.1705ZM123.298 43.5795L121.423 43.7841C121.37 43.5947 121.277 43.4167 121.145 43.25C121.016 43.0833 120.842 42.9489 120.622 42.8466C120.402 42.7443 120.134 42.6932 119.815 42.6932C119.387 42.6932 119.027 42.786 118.736 42.9716C118.448 43.1572 118.306 43.3977 118.31 43.6932C118.306 43.947 118.399 44.1534 118.588 44.3125C118.781 44.4716 119.099 44.6023 119.543 44.7045L121.031 45.0227C121.857 45.2008 122.471 45.483 122.872 45.8693C123.277 46.2557 123.482 46.7614 123.486 47.3864C123.482 47.9356 123.321 48.4205 123.003 48.8409C122.688 49.2576 122.251 49.5833 121.69 49.8182C121.13 50.053 120.486 50.1705 119.759 50.1705C118.69 50.1705 117.83 49.947 117.179 49.5C116.527 49.0492 116.139 48.4223 116.014 47.6193L118.02 47.4261C118.111 47.8201 118.304 48.1174 118.599 48.3182C118.895 48.5189 119.279 48.6193 119.753 48.6193C120.241 48.6193 120.634 48.5189 120.929 48.3182C121.228 48.1174 121.378 47.8693 121.378 47.5739C121.378 47.3239 121.281 47.1174 121.088 46.9545C120.899 46.7917 120.603 46.6667 120.202 46.5795L118.713 46.267C117.876 46.0928 117.257 45.7992 116.855 45.3864C116.454 44.9697 116.255 44.4432 116.259 43.8068C116.255 43.2689 116.401 42.803 116.696 42.4091C116.995 42.0114 117.41 41.7045 117.94 41.4886C118.474 41.2689 119.09 41.1591 119.787 41.1591C120.81 41.1591 121.615 41.3769 122.202 41.8125C122.793 42.2481 123.158 42.8371 123.298 43.5795ZM129.045 50.1705C128.17 50.1705 127.415 49.9886 126.778 49.625C126.146 49.2576 125.659 48.7386 125.318 48.0682C124.977 47.3939 124.807 46.6004 124.807 45.6875C124.807 44.7898 124.977 44.0019 125.318 43.3239C125.663 42.642 126.144 42.1117 126.761 41.733C127.379 41.3504 128.104 41.1591 128.938 41.1591C129.475 41.1591 129.983 41.2462 130.46 41.4205C130.941 41.5909 131.366 41.8561 131.733 42.2159C132.104 42.5758 132.396 43.0341 132.608 43.5909C132.82 44.1439 132.926 44.803 132.926 45.5682V46.1989H125.773V44.8125H130.955C130.951 44.4186 130.866 44.0682 130.699 43.7614C130.532 43.4508 130.299 43.2064 130 43.0284C129.705 42.8504 129.36 42.7614 128.966 42.7614C128.545 42.7614 128.176 42.8636 127.858 43.0682C127.54 43.2689 127.292 43.5341 127.114 43.8636C126.939 44.1894 126.85 44.5473 126.847 44.9375V46.1477C126.847 46.6553 126.939 47.0909 127.125 47.4545C127.311 47.8144 127.57 48.0909 127.903 48.2841C128.237 48.4735 128.627 48.5682 129.074 48.5682C129.373 48.5682 129.644 48.5265 129.886 48.4432C130.129 48.3561 130.339 48.2292 130.517 48.0625C130.695 47.8958 130.83 47.6894 130.92 47.4432L132.841 47.6591C132.72 48.1667 132.489 48.6098 132.148 48.9886C131.811 49.3636 131.379 49.6553 130.852 49.8636C130.326 50.0682 129.723 50.1705 129.045 50.1705ZM137.178 50.1761C136.625 50.1761 136.126 50.0777 135.683 49.8807C135.244 49.6799 134.895 49.3845 134.638 48.9943C134.384 48.6042 134.257 48.1231 134.257 47.5511C134.257 47.0587 134.348 46.6515 134.53 46.3295C134.712 46.0076 134.96 45.75 135.274 45.5568C135.589 45.3636 135.943 45.2178 136.337 45.1193C136.734 45.017 137.145 44.9432 137.57 44.8977C138.081 44.8447 138.496 44.7973 138.814 44.7557C139.132 44.7102 139.363 44.642 139.507 44.5511C139.655 44.4564 139.729 44.3106 139.729 44.1136V44.0795C139.729 43.6515 139.602 43.3201 139.348 43.0852C139.094 42.8504 138.729 42.733 138.251 42.733C137.748 42.733 137.348 42.8428 137.053 43.0625C136.761 43.2822 136.564 43.5417 136.462 43.8409L134.541 43.5682C134.693 43.0379 134.943 42.5947 135.291 42.2386C135.64 41.8788 136.066 41.6098 136.57 41.4318C137.073 41.25 137.63 41.1591 138.24 41.1591C138.661 41.1591 139.079 41.2083 139.496 41.3068C139.912 41.4053 140.293 41.5682 140.638 41.7955C140.982 42.0189 141.259 42.3239 141.467 42.7102C141.679 43.0966 141.786 43.5795 141.786 44.1591V50H139.808V48.8011H139.74C139.615 49.0436 139.439 49.2708 139.212 49.483C138.988 49.6913 138.706 49.8598 138.365 49.9886C138.028 50.1136 137.632 50.1761 137.178 50.1761ZM137.712 48.6648C138.125 48.6648 138.482 48.5833 138.786 48.4205C139.089 48.2538 139.321 48.0341 139.484 47.7614C139.651 47.4886 139.734 47.1913 139.734 46.8693V45.8409C139.67 45.8939 139.56 45.9432 139.405 45.9886C139.253 46.0341 139.083 46.0739 138.893 46.108C138.704 46.142 138.517 46.1723 138.331 46.1989C138.145 46.2254 137.984 46.2481 137.848 46.267C137.541 46.3087 137.267 46.3769 137.024 46.4716C136.782 46.5663 136.59 46.6989 136.45 46.8693C136.31 47.036 136.24 47.2519 136.24 47.517C136.24 47.8958 136.378 48.1818 136.655 48.375C136.931 48.5682 137.284 48.6648 137.712 48.6648ZM143.854 50V41.2727H145.848V42.7273H145.939C146.098 42.2235 146.371 41.8352 146.757 41.5625C147.147 41.286 147.592 41.1477 148.092 41.1477C148.206 41.1477 148.333 41.1534 148.473 41.1648C148.617 41.1723 148.736 41.1856 148.831 41.2045V43.0966C148.744 43.0663 148.606 43.0398 148.416 43.017C148.231 42.9905 148.051 42.9773 147.876 42.9773C147.501 42.9773 147.164 43.0587 146.865 43.2216C146.57 43.3807 146.337 43.6023 146.166 43.8864C145.996 44.1705 145.911 44.4981 145.911 44.8693V50H143.854ZM153.645 50.1705C152.774 50.1705 152.026 49.9792 151.401 49.5966C150.779 49.214 150.3 48.6856 149.963 48.0114C149.63 47.3333 149.463 46.553 149.463 45.6705C149.463 44.7841 149.634 44.0019 149.974 43.3239C150.315 42.642 150.796 42.1117 151.418 41.733C152.043 41.3504 152.781 41.1591 153.634 41.1591C154.342 41.1591 154.969 41.2898 155.514 41.5511C156.063 41.8087 156.501 42.1742 156.827 42.6477C157.152 43.1174 157.338 43.6667 157.384 44.2955H155.418C155.338 43.875 155.149 43.5246 154.849 43.2443C154.554 42.9602 154.158 42.8182 153.662 42.8182C153.241 42.8182 152.872 42.9318 152.554 43.1591C152.236 43.3826 151.988 43.7045 151.81 44.125C151.635 44.5455 151.548 45.0492 151.548 45.6364C151.548 46.2311 151.635 46.7424 151.81 47.1705C151.984 47.5947 152.228 47.9223 152.543 48.1534C152.861 48.3807 153.234 48.4943 153.662 48.4943C153.965 48.4943 154.236 48.4375 154.474 48.3239C154.717 48.2064 154.92 48.0379 155.082 47.8182C155.245 47.5985 155.357 47.3314 155.418 47.017H157.384C157.334 47.6345 157.152 48.1818 156.838 48.6591C156.524 49.1326 156.096 49.5038 155.554 49.7727C155.012 50.0379 154.376 50.1705 153.645 50.1705ZM161.129 44.8864V50H159.072V38.3636H161.084V42.7557H161.186C161.391 42.2633 161.707 41.875 162.135 41.5909C162.567 41.303 163.116 41.1591 163.783 41.1591C164.389 41.1591 164.917 41.286 165.368 41.5398C165.819 41.7936 166.167 42.1648 166.413 42.6534C166.663 43.142 166.788 43.7386 166.788 44.4432V50H164.732V44.7614C164.732 44.1742 164.58 43.7178 164.277 43.392C163.978 43.0625 163.557 42.8977 163.016 42.8977C162.652 42.8977 162.326 42.9773 162.038 43.1364C161.754 43.2917 161.531 43.517 161.368 43.8125C161.209 44.108 161.129 44.4659 161.129 44.8864ZM182.905 42.2898H180.78C180.719 41.9413 180.607 41.6326 180.445 41.3636C180.282 41.0909 180.079 40.8598 179.837 40.6705C179.594 40.4811 179.318 40.339 179.007 40.2443C178.7 40.1458 178.369 40.0966 178.013 40.0966C177.38 40.0966 176.82 40.2557 176.331 40.5739C175.842 40.8883 175.46 41.3504 175.183 41.9602C174.907 42.5663 174.768 43.3068 174.768 44.1818C174.768 45.072 174.907 45.822 175.183 46.4318C175.464 47.0379 175.846 47.4962 176.331 47.8068C176.82 48.1136 177.378 48.267 178.007 48.267C178.356 48.267 178.681 48.2216 178.984 48.1307C179.291 48.036 179.566 47.8977 179.808 47.7159C180.054 47.5341 180.261 47.3106 180.428 47.0455C180.598 46.7803 180.715 46.4773 180.78 46.1364L182.905 46.1477C182.825 46.7008 182.653 47.2197 182.388 47.7045C182.126 48.1894 181.784 48.6174 181.359 48.9886C180.935 49.3561 180.439 49.6439 179.871 49.8523C179.303 50.0568 178.672 50.1591 177.979 50.1591C176.956 50.1591 176.043 49.9223 175.24 49.4489C174.437 48.9754 173.804 48.2917 173.342 47.3977C172.88 46.5038 172.649 45.4318 172.649 44.1818C172.649 42.928 172.882 41.8561 173.348 40.9659C173.814 40.072 174.448 39.3883 175.251 38.9148C176.054 38.4413 176.964 38.2045 177.979 38.2045C178.626 38.2045 179.229 38.2955 179.786 38.4773C180.342 38.6591 180.839 38.9261 181.274 39.2784C181.71 39.6269 182.068 40.0549 182.348 40.5625C182.632 41.0663 182.818 41.642 182.905 42.2898ZM188.608 50.1705C187.733 50.1705 186.977 49.9886 186.341 49.625C185.708 49.2576 185.222 48.7386 184.881 48.0682C184.54 47.3939 184.369 46.6004 184.369 45.6875C184.369 44.7898 184.54 44.0019 184.881 43.3239C185.225 42.642 185.706 42.1117 186.324 41.733C186.941 41.3504 187.667 41.1591 188.5 41.1591C189.038 41.1591 189.545 41.2462 190.023 41.4205C190.504 41.5909 190.928 41.8561 191.295 42.2159C191.667 42.5758 191.958 43.0341 192.17 43.5909C192.383 44.1439 192.489 44.803 192.489 45.5682V46.1989H185.335V44.8125H190.517C190.513 44.4186 190.428 44.0682 190.261 43.7614C190.095 43.4508 189.862 43.2064 189.562 43.0284C189.267 42.8504 188.922 42.7614 188.528 42.7614C188.108 42.7614 187.739 42.8636 187.42 43.0682C187.102 43.2689 186.854 43.5341 186.676 43.8636C186.502 44.1894 186.413 44.5473 186.409 44.9375V46.1477C186.409 46.6553 186.502 47.0909 186.688 47.4545C186.873 47.8144 187.133 48.0909 187.466 48.2841C187.799 48.4735 188.189 48.5682 188.636 48.5682C188.936 48.5682 189.206 48.5265 189.449 48.4432C189.691 48.3561 189.902 48.2292 190.08 48.0625C190.258 47.8958 190.392 47.6894 190.483 47.4432L192.403 47.6591C192.282 48.1667 192.051 48.6098 191.71 48.9886C191.373 49.3636 190.941 49.6553 190.415 49.8636C189.888 50.0682 189.286 50.1705 188.608 50.1705ZM196.286 44.8864V50H194.229V41.2727H196.195V42.7557H196.297C196.498 42.267 196.818 41.8788 197.257 41.5909C197.7 41.303 198.248 41.1591 198.899 41.1591C199.501 41.1591 200.026 41.2879 200.473 41.5455C200.924 41.803 201.272 42.1761 201.518 42.6648C201.768 43.1534 201.892 43.7462 201.888 44.4432V50H199.831V44.7614C199.831 44.178 199.679 43.7216 199.376 43.392C199.077 43.0625 198.662 42.8977 198.132 42.8977C197.772 42.8977 197.452 42.9773 197.172 43.1364C196.895 43.2917 196.678 43.517 196.518 43.8125C196.363 44.108 196.286 44.4659 196.286 44.8864ZM208.337 41.2727V42.8636H203.32V41.2727H208.337ZM204.558 39.1818H206.615V47.375C206.615 47.6515 206.657 47.8636 206.74 48.0114C206.827 48.1553 206.941 48.2538 207.081 48.3068C207.221 48.3598 207.376 48.3864 207.547 48.3864C207.676 48.3864 207.793 48.3769 207.899 48.358C208.009 48.339 208.092 48.322 208.149 48.3068L208.496 49.9148C208.386 49.9527 208.229 49.9943 208.024 50.0398C207.823 50.0852 207.577 50.1117 207.286 50.1193C206.77 50.1345 206.306 50.0568 205.893 49.8864C205.481 49.7121 205.153 49.4432 204.911 49.0795C204.672 48.7159 204.554 48.2614 204.558 47.7159V39.1818ZM213.827 50.1705C212.952 50.1705 212.196 49.9886 211.56 49.625C210.927 49.2576 210.44 48.7386 210.099 48.0682C209.759 47.3939 209.588 46.6004 209.588 45.6875C209.588 44.7898 209.759 44.0019 210.099 43.3239C210.444 42.642 210.925 42.1117 211.543 41.733C212.16 41.3504 212.885 41.1591 213.719 41.1591C214.257 41.1591 214.764 41.2462 215.241 41.4205C215.723 41.5909 216.147 41.8561 216.514 42.2159C216.885 42.5758 217.177 43.0341 217.389 43.5909C217.601 44.1439 217.707 44.803 217.707 45.5682V46.1989H210.554V44.8125H215.736C215.732 44.4186 215.647 44.0682 215.48 43.7614C215.313 43.4508 215.08 43.2064 214.781 43.0284C214.486 42.8504 214.141 42.7614 213.747 42.7614C213.327 42.7614 212.957 42.8636 212.639 43.0682C212.321 43.2689 212.073 43.5341 211.895 43.8636C211.721 44.1894 211.632 44.5473 211.628 44.9375V46.1477C211.628 46.6553 211.721 47.0909 211.906 47.4545C212.092 47.8144 212.351 48.0909 212.685 48.2841C213.018 48.4735 213.408 48.5682 213.855 48.5682C214.154 48.5682 214.425 48.5265 214.668 48.4432C214.91 48.3561 215.12 48.2292 215.298 48.0625C215.476 47.8958 215.611 47.6894 215.702 47.4432L217.622 47.6591C217.501 48.1667 217.27 48.6098 216.929 48.9886C216.592 49.3636 216.16 49.6553 215.634 49.8636C215.107 50.0682 214.505 50.1705 213.827 50.1705ZM219.447 50V41.2727H221.442V42.7273H221.533C221.692 42.2235 221.964 41.8352 222.351 41.5625C222.741 41.286 223.186 41.1477 223.686 41.1477C223.8 41.1477 223.927 41.1534 224.067 41.1648C224.211 41.1723 224.33 41.1856 224.425 41.2045V43.0966C224.338 43.0663 224.199 43.0398 224.01 43.017C223.824 42.9905 223.644 42.9773 223.47 42.9773C223.095 42.9773 222.758 43.0587 222.459 43.2216C222.163 43.3807 221.93 43.6023 221.76 43.8864C221.589 44.1705 221.504 44.4981 221.504 44.8693V50H219.447Z" fill="#17254E"/>
<defs>
<clipPath id="clip0_223_545">
<rect width="69" height="69" fill="white"/>
</clipPath>
</defs>
</svg>
